<svg xmlns="http://www.w3.org/2000/svg" xmlns:xlink="http://www.w3.org/1999/xlink" viewBox="0 0 427.84 298.57"><defs><style>.cls-1{isolation:isolate;}.cls-2{fill:url(#linear-gradient);}.cls-3{fill:url(#linear-gradient-2);}.cls-4{fill:url(#linear-gradient-3);}.cls-5{fill:url(#linear-gradient-4);}.cls-6{fill:#45108a;}.cls-7{fill:url(#linear-gradient-5);}.cls-8{fill:url(#linear-gradient-6);}.cls-9{fill:url(#linear-gradient-7);}.cls-10{fill:url(#linear-gradient-8);}.cls-11{fill:url(#linear-gradient-9);}.cls-12{fill:url(#linear-gradient-10);}.cls-13{fill:url(#linear-gradient-11);}.cls-14{fill:url(#linear-gradient-12);}.cls-15{fill:url(#linear-gradient-13);}.cls-16{fill:url(#linear-gradient-14);}.cls-17{fill:url(#linear-gradient-15);}.cls-18{fill:url(#linear-gradient-16);}.cls-19{fill:url(#linear-gradient-17);}.cls-20{fill:url(#linear-gradient-18);}.cls-21{fill:url(#linear-gradient-19);}.cls-22{fill:url(#linear-gradient-20);}.cls-23{fill:url(#linear-gradient-21);}.cls-24{fill:url(#linear-gradient-22);}.cls-25{fill:url(#linear-gradient-23);}.cls-26{fill:url(#linear-gradient-24);}.cls-27,.cls-49,.cls-55{opacity:0.2;}.cls-28,.cls-29,.cls-30,.cls-31,.cls-32,.cls-33,.cls-34,.cls-35,.cls-36,.cls-37,.cls-38,.cls-39{fill:#43e8e1;}.cls-28,.cls-54{opacity:0;}.cls-29{opacity:0.09;}.cls-30{opacity:0.18;}.cls-31{opacity:0.27;}.cls-32{opacity:0.36;}.cls-33{opacity:0.45;}.cls-34{opacity:0.55;}.cls-35{opacity:0.64;}.cls-36{opacity:0.73;}.cls-37{opacity:0.82;}.cls-38{opacity:0.91;}.cls-40{fill:url(#linear-gradient-25);}.cls-41{fill:url(#New_Gradient_Swatch_copy_25);}.cls-42{fill:url(#linear-gradient-26);}.cls-43{fill:url(#linear-gradient-27);}.cls-44{fill:url(#New_Gradient_Swatch_copy_25-2);}.cls-45{fill:url(#New_Gradient_Swatch_copy_25-3);}.cls-46,.cls-47,.cls-57,.cls-59,.cls-61,.cls-63,.cls-65,.cls-67,.cls-69,.cls-71,.cls-73,.cls-75,.cls-77,.cls-79,.cls-81,.cls-83,.cls-85,.cls-87,.cls-88,.cls-89,.cls-90,.cls-91,.cls-92,.cls-93,.cls-94,.cls-95,.cls-96,.cls-97{mix-blend-mode:color-dodge;}.cls-46{fill:url(#Radial_Gradient_1);}.cls-47{fill:url(#radial-gradient);}.cls-48{mix-blend-mode:screen;}.cls-49,.cls-50,.cls-51,.cls-54{fill:#2af6ff;}.cls-50,.cls-52{opacity:0.5;}.cls-52,.cls-53,.cls-55{fill:#ff63ce;}.cls-56{fill:url(#linear-gradient-28);}.cls-57{fill:url(#Radial_Gradient_1-2);}.cls-58{fill:url(#linear-gradient-29);}.cls-59{fill:url(#Radial_Gradient_1-3);}.cls-60{fill:url(#linear-gradient-30);}.cls-61{fill:url(#Radial_Gradient_1-4);}.cls-62{fill:url(#linear-gradient-31);}.cls-63{fill:url(#Radial_Gradient_1-5);}.cls-64{fill:url(#linear-gradient-32);}.cls-65{fill:url(#Radial_Gradient_1-6);}.cls-66{fill:url(#linear-gradient-33);}.cls-67{fill:url(#Radial_Gradient_1-7);}.cls-68{fill:url(#linear-gradient-34);}.cls-69{fill:url(#Radial_Gradient_1-8);}.cls-70{fill:url(#linear-gradient-35);}.cls-71{fill:url(#Radial_Gradient_1-9);}.cls-72{fill:url(#linear-gradient-36);}.cls-73{fill:url(#Radial_Gradient_1-10);}.cls-74{fill:url(#linear-gradient-37);}.cls-75{fill:url(#Radial_Gradient_1-11);}.cls-76{fill:url(#linear-gradient-38);}.cls-77{fill:url(#Radial_Gradient_1-12);}.cls-78{fill:url(#linear-gradient-39);}.cls-79{fill:url(#Radial_Gradient_1-13);}.cls-80{fill:url(#linear-gradient-40);}.cls-81{fill:url(#Radial_Gradient_1-14);}.cls-82{fill:url(#linear-gradient-41);}.cls-83{fill:url(#Radial_Gradient_1-15);}.cls-84{fill:url(#linear-gradient-42);}.cls-85{fill:url(#Radial_Gradient_1-16);}.cls-86{fill:url(#linear-gradient-43);}.cls-87{fill:url(#Radial_Gradient_1-17);}.cls-88{fill:url(#radial-gradient-2);}.cls-89{fill:url(#radial-gradient-3);}.cls-90{fill:url(#radial-gradient-4);}.cls-91{fill:url(#radial-gradient-5);}.cls-92{fill:url(#radial-gradient-6);}.cls-93{fill:url(#radial-gradient-7);}.cls-94{fill:url(#radial-gradient-8);}.cls-95{fill:url(#radial-gradient-9);}.cls-96{fill:url(#radial-gradient-10);}.cls-97{fill:url(#radial-gradient-11);}</style><linearGradient id="linear-gradient" x1="354" y1="398.57" x2="400.2" y2="311.63" gradientUnits="userSpaceOnUse"><stop offset="0" stop-color="#45108a"/><stop offset="0.54" stop-color="#7c1dc9"/><stop offset="0.63" stop-color="#6e41d2"/><stop offset="0.82" stop-color="#4c9be8"/><stop offset="1" stop-color="#2af6ff"/></linearGradient><linearGradient id="linear-gradient-2" x1="468.23" y1="378.9" x2="439.57" y2="311.51" xlink:href="#linear-gradient"/><linearGradient id="linear-gradient-3" x1="528.21" y1="375.91" x2="450.33" y2="312.28" xlink:href="#linear-gradient"/><linearGradient id="linear-gradient-4" x1="580.69" y1="388.44" x2="467.76" y2="306.9" xlink:href="#linear-gradient"/><linearGradient id="linear-gradient-5" x1="201.53" y1="295.88" x2="363.16" y2="295.88" xlink:href="#linear-gradient"/><linearGradient id="linear-gradient-6" x1="360.07" y1="352.52" x2="398.12" y2="315.01" xlink:href="#linear-gradient"/><linearGradient id="linear-gradient-7" x1="546.64" y1="235.02" x2="510.76" y2="274.43" xlink:href="#linear-gradient"/><linearGradient id="linear-gradient-8" x1="586.11" y1="326.72" x2="478.07" y2="298.58" xlink:href="#linear-gradient"/><linearGradient id="linear-gradient-9" x1="428.09" y1="406.2" x2="406.48" y2="298.16" xlink:href="#linear-gradient"/><linearGradient id="linear-gradient-10" x1="318.59" y1="330.3" x2="384.02" y2="330.3" xlink:href="#linear-gradient"/><linearGradient id="linear-gradient-11" x1="506.94" y1="344.88" x2="454.84" y2="307.11" xlink:href="#linear-gradient"/><linearGradient id="linear-gradient-12" x1="268.01" y1="289.35" x2="352.74" y2="289.35" xlink:href="#linear-gradient"/><linearGradient id="linear-gradient-13" x1="503.15" y1="139.56" x2="475.97" y2="201.53" xlink:href="#linear-gradient"/><linearGradient id="linear-gradient-14" x1="240.19" y1="331.78" x2="373.59" y2="331.78" xlink:href="#linear-gradient"/><linearGradient id="linear-gradient-15" x1="563.13" y1="280.71" x2="506.6" y2="286.69" xlink:href="#linear-gradient"/><linearGradient id="linear-gradient-16" x1="559.31" y1="177.46" x2="490.81" y2="227.47" xlink:href="#linear-gradient"/><linearGradient id="linear-gradient-17" x1="417.04" y1="131.43" x2="440.96" y2="205.09" xlink:href="#linear-gradient"/><linearGradient id="linear-gradient-18" x1="220.77" y1="254.99" x2="342.31" y2="254.99" xlink:href="#linear-gradient"/><linearGradient id="linear-gradient-19" x1="262.63" y1="252.28" x2="331.88" y2="252.28" xlink:href="#linear-gradient"/><linearGradient id="linear-gradient-20" x1="332.62" y1="169.45" x2="418.37" y2="169.45" xlink:href="#linear-gradient"/><linearGradient id="linear-gradient-21" x1="253.52" y1="220.05" x2="351.68" y2="220.05" xlink:href="#linear-gradient"/><linearGradient id="linear-gradient-22" x1="595.02" y1="326.97" x2="496.77" y2="278.05" xlink:href="#linear-gradient"/><linearGradient id="linear-gradient-23" x1="296.74" y1="203.71" x2="389.54" y2="203.71" xlink:href="#linear-gradient"/><linearGradient id="linear-gradient-24" x1="597.97" y1="181.47" x2="501.21" y2="239.09" xlink:href="#linear-gradient"/><linearGradient id="linear-gradient-25" x1="326.85" y1="256.59" x2="514.93" y2="256.59" gradientUnits="userSpaceOnUse"><stop offset="0.04" stop-color="#25054d"/><stop offset="0.14" stop-color="#260550"/><stop offset="0.21" stop-color="#2b0759"/><stop offset="0.27" stop-color="#330a67"/><stop offset="0.32" stop-color="#3e0e7d"/><stop offset="0.34" stop-color="#45108a"/><stop offset="0.38" stop-color="#4e1294"/><stop offset="0.44" stop-color="#6518af"/><stop offset="0.49" stop-color="#7c1dc9"/><stop offset="0.53" stop-color="#6b19b5"/><stop offset="0.59" stop-color="#45108a"/><stop offset="0.66" stop-color="#3c0d79"/><stop offset="0.79" stop-color="#2f0961"/><stop offset="0.9" stop-color="#280652"/><stop offset="1" stop-color="#25054d"/></linearGradient><linearGradient id="New_Gradient_Swatch_copy_25" x1="490.72" y1="71.5" x2="413.33" y2="271.27" gradientUnits="userSpaceOnUse"><stop offset="0" stop-color="#25054d"/><stop offset="1" stop-color="#45108a"/></linearGradient><linearGradient id="linear-gradient-26" x1="331.15" y1="248.67" x2="510.59" y2="248.67" gradientUnits="userSpaceOnUse"><stop offset="0.04" stop-color="#b086cc"/><stop offset="0.21" stop-color="#c1a1d5"/><stop offset="0.29" stop-color="#c8abda"/><stop offset="0.41" stop-color="#dbc6e7"/><stop offset="0.51" stop-color="#ebdef3"/><stop offset="0.56" stop-color="#e4d2ee"/><stop offset="0.69" stop-color="#d6bce6"/><stop offset="0.78" stop-color="#d1b4e3"/><stop offset="0.78" stop-color="#cfb2e2"/><stop offset="0.86" stop-color="#be9ad6"/><stop offset="0.94" stop-color="#b48bcf"/><stop offset="1" stop-color="#b086cc"/></linearGradient><linearGradient id="linear-gradient-27" x1="326.7" y1="242.99" x2="514.78" y2="242.99" xlink:href="#linear-gradient-25"/><linearGradient id="New_Gradient_Swatch_copy_25-2" x1="490.57" y1="54.69" x2="413.18" y2="254.47" xlink:href="#New_Gradient_Swatch_copy_25"/><linearGradient id="New_Gradient_Swatch_copy_25-3" x1="448.48" y1="163.35" x2="388.54" y2="318.08" xlink:href="#New_Gradient_Swatch_copy_25"/><radialGradient id="Radial_Gradient_1" cx="420.74" cy="262.11" r="69.34" gradientUnits="userSpaceOnUse"><stop offset="0" stop-color="#fff"/><stop offset="1"/></radialGradient><radialGradient id="radial-gradient" cx="6590.14" cy="9384.31" r="34.85" gradientTransform="matrix(0, -0.9, -0.66, 0, 6648.95, 6240.21)" gradientUnits="userSpaceOnUse"><stop offset="0" stop-color="#972a74"/><stop offset="0.04" stop-color="#8a266a"/><stop offset="0.19" stop-color="#601b4a"/><stop offset="0.35" stop-color="#3d112f"/><stop offset="0.51" stop-color="#230a1b"/><stop offset="0.67" stop-color="#0f040c"/><stop offset="0.83" stop-color="#040103"/><stop offset="1"/></radialGradient><linearGradient id="linear-gradient-28" x1="507.56" y1="258.03" x2="518.07" y2="275" gradientUnits="userSpaceOnUse"><stop offset="0.01" stop-color="#b086cc"/><stop offset="0.36" stop-color="#c1a1d5"/><stop offset="0.38" stop-color="#c8abda"/><stop offset="0.41" stop-color="#dac6e6"/><stop offset="0.45" stop-color="#f7f2f9"/><stop offset="0.46" stop-color="#fff"/><stop offset="0.49" stop-color="#f1e9f7"/><stop offset="0.53" stop-color="#e0ccec"/><stop offset="0.57" stop-color="#d5bae5"/><stop offset="0.6" stop-color="#d1b4e3"/><stop offset="0.63" stop-color="#bcbce3"/><stop offset="0.72" stop-color="#91cce2"/><stop offset="0.8" stop-color="#6fd8e2"/><stop offset="0.87" stop-color="#57e1e1"/><stop offset="0.94" stop-color="#48e6e1"/><stop offset="1" stop-color="#43e8e1"/></linearGradient><radialGradient id="Radial_Gradient_1-2" cx="509.32" cy="266.75" r="6.97" xlink:href="#Radial_Gradient_1"/><linearGradient id="linear-gradient-29" x1="497.11" y1="264.07" x2="507.62" y2="281.04" xlink:href="#linear-gradient-28"/><radialGradient id="Radial_Gradient_1-3" cx="498.88" cy="272.79" r="6.97" xlink:href="#Radial_Gradient_1"/><linearGradient id="linear-gradient-30" x1="486.67" y1="270.1" x2="497.17" y2="287.07" xlink:href="#linear-gradient-28"/><radialGradient id="Radial_Gradient_1-4" cx="488.43" cy="278.82" r="6.97" xlink:href="#Radial_Gradient_1"/><linearGradient id="linear-gradient-31" x1="476.22" y1="276.14" x2="486.72" y2="293.11" xlink:href="#linear-gradient-28"/><radialGradient id="Radial_Gradient_1-5" cx="477.98" cy="284.86" r="6.97" xlink:href="#Radial_Gradient_1"/><linearGradient id="linear-gradient-32" x1="465.77" y1="282.18" x2="476.28" y2="299.15" xlink:href="#linear-gradient-28"/><radialGradient id="Radial_Gradient_1-6" cx="467.53" cy="290.9" r="6.97" xlink:href="#Radial_Gradient_1"/><linearGradient id="linear-gradient-33" x1="455.32" y1="288.22" x2="465.83" y2="305.19" xlink:href="#linear-gradient-28"/><radialGradient id="Radial_Gradient_1-7" cx="457.08" cy="296.94" r="6.97" xlink:href="#Radial_Gradient_1"/><linearGradient id="linear-gradient-34" x1="444.82" y1="294.25" x2="455.33" y2="311.22" xlink:href="#linear-gradient-28"/><radialGradient id="Radial_Gradient_1-8" cx="446.59" cy="302.97" r="6.97" xlink:href="#Radial_Gradient_1"/><linearGradient id="linear-gradient-35" x1="434.37" y1="300.29" x2="444.88" y2="317.26" xlink:href="#linear-gradient-28"/><radialGradient id="Radial_Gradient_1-9" cx="436.14" cy="309.01" r="6.97" xlink:href="#Radial_Gradient_1"/><linearGradient id="linear-gradient-36" x1="8003.33" y1="258.03" x2="8013.84" y2="274.99" gradientTransform="matrix(-1, 0, 0, 1, 8337.62, 0)" xlink:href="#linear-gradient-28"/><radialGradient id="Radial_Gradient_1-10" cx="8005.1" cy="266.75" r="6.97" gradientTransform="matrix(-1, 0, 0, 1, 8337.62, 0)" xlink:href="#Radial_Gradient_1"/><linearGradient id="linear-gradient-37" x1="7992.89" y1="264.06" x2="8003.39" y2="281.03" gradientTransform="matrix(-1, 0, 0, 1, 8337.62, 0)" xlink:href="#linear-gradient-28"/><radialGradient id="Radial_Gradient_1-11" cx="7994.65" cy="272.78" r="6.97" gradientTransform="matrix(-1, 0, 0, 1, 8337.62, 0)" xlink:href="#Radial_Gradient_1"/><linearGradient id="linear-gradient-38" x1="7982.45" y1="270.1" x2="7992.95" y2="287.06" gradientTransform="matrix(-1, 0, 0, 1, 8337.62, 0)" xlink:href="#linear-gradient-28"/><radialGradient id="Radial_Gradient_1-12" cx="7984.21" cy="278.82" r="6.97" gradientTransform="matrix(-1, 0, 0, 1, 8337.62, 0)" xlink:href="#Radial_Gradient_1"/><linearGradient id="linear-gradient-39" x1="7972" y1="276.14" x2="7982.51" y2="293.1" gradientTransform="matrix(-1, 0, 0, 1, 8337.62, 0)" xlink:href="#linear-gradient-28"/><radialGradient id="Radial_Gradient_1-13" cx="7973.76" cy="284.85" r="6.97" gradientTransform="matrix(-1, 0, 0, 1, 8337.62, 0)" xlink:href="#Radial_Gradient_1"/><linearGradient id="linear-gradient-40" x1="7961.56" y1="282.17" x2="7972.06" y2="299.13" gradientTransform="matrix(-1, 0, 0, 1, 8337.62, 0)" xlink:href="#linear-gradient-28"/><radialGradient id="Radial_Gradient_1-14" cx="7963.32" cy="290.89" r="6.97" gradientTransform="matrix(-1, 0, 0, 1, 8337.62, 0)" xlink:href="#Radial_Gradient_1"/><linearGradient id="linear-gradient-41" x1="7951.11" y1="288.21" x2="7961.62" y2="305.17" gradientTransform="matrix(-1, 0, 0, 1, 8337.62, 0)" xlink:href="#linear-gradient-28"/><radialGradient id="Radial_Gradient_1-15" cx="7952.87" cy="296.92" r="6.97" gradientTransform="matrix(-1, 0, 0, 1, 8337.62, 0)" xlink:href="#Radial_Gradient_1"/><linearGradient id="linear-gradient-42" x1="7940.74" y1="294.24" x2="7951.25" y2="311.21" gradientTransform="matrix(-1, 0, 0, 1, 8337.62, 0)" xlink:href="#linear-gradient-28"/><radialGradient id="Radial_Gradient_1-16" cx="7942.5" cy="302.96" r="6.97" gradientTransform="matrix(-1, 0, 0, 1, 8337.62, 0)" xlink:href="#Radial_Gradient_1"/><linearGradient id="linear-gradient-43" x1="7930.3" y1="300.28" x2="7940.8" y2="317.24" gradientTransform="matrix(-1, 0, 0, 1, 8337.62, 0)" xlink:href="#linear-gradient-28"/><radialGradient id="Radial_Gradient_1-17" cx="7932.06" cy="308.99" r="6.97" gradientTransform="matrix(-1, 0, 0, 1, 8337.62, 0)" xlink:href="#Radial_Gradient_1"/><radialGradient id="radial-gradient-2" cx="300.39" cy="203.17" r="5.43" gradientUnits="userSpaceOnUse"><stop offset="0.07" stop-color="#fee2a6"/><stop offset="0.14" stop-color="#7a7782"/><stop offset="0.19" stop-color="#1b2b69"/><stop offset="0.26" stop-color="#17255b"/><stop offset="0.49" stop-color="#0d1534"/><stop offset="0.69" stop-color="#060a17"/><stop offset="0.87" stop-color="#020306"/><stop offset="1"/></radialGradient><radialGradient id="radial-gradient-3" cx="343.39" cy="175.17" r="5.43" xlink:href="#radial-gradient-2"/><radialGradient id="radial-gradient-4" cx="226.05" cy="220.51" r="5.43" xlink:href="#radial-gradient-2"/><radialGradient id="radial-gradient-5" cx="165.05" cy="200.17" r="5.43" xlink:href="#radial-gradient-2"/><radialGradient id="radial-gradient-6" cx="108.39" cy="220.17" r="5.43" xlink:href="#radial-gradient-2"/><radialGradient id="radial-gradient-7" cx="292.25" cy="275.74" r="5.43" xlink:href="#radial-gradient-2"/><radialGradient id="radial-gradient-8" cx="355.39" cy="95.84" r="5.43" xlink:href="#radial-gradient-2"/><radialGradient id="radial-gradient-9" cx="81.39" cy="91.84" r="5.43" xlink:href="#radial-gradient-2"/><radialGradient id="radial-gradient-10" cx="273.89" cy="264.84" r="5.43" xlink:href="#radial-gradient-2"/><radialGradient id="radial-gradient-11" cx="26.39" cy="180.34" r="5.43" xlink:href="#radial-gradient-2"/></defs><g class="cls-1"><g id="Layer_1" data-name="Layer 1"><path class="cls-2" d="M421,344.37,386.49,324l9.62-5.46a9,9,0,0,0,2.64.39,8.32,8.32,0,0,0,4.12-1,3.55,3.55,0,0,0,2-3,3.47,3.47,0,0,0-2-2.94,8.23,8.23,0,0,0-4.07-1,8.47,8.47,0,0,0-4.13,1,3.56,3.56,0,0,0-2,3,3.13,3.13,0,0,0,1.25,2.42L382.42,324l34.5,20.31-52,28.7,26.47,16.15L360.3,406.44,332.7,390.5a3.16,3.16,0,0,0,1.11-2.3,3.48,3.48,0,0,0-2-2.95,8.24,8.24,0,0,0-4.08-1,8.43,8.43,0,0,0-4.12,1,3.57,3.57,0,0,0-2,3,3.48,3.48,0,0,0,2,2.95,8.35,8.35,0,0,0,4.08,1,9,9,0,0,0,3.12-.54l-.05.09,29.52,17.09,35.16-19.59L369,373.08Zm-25.33-30.54a6.95,6.95,0,0,1,6.16,0c.62.36,1,.79,1,1.18s-.36.84-1,1.2a7.22,7.22,0,0,1-6.16,0c-.61-.36-1-.79-1-1.18S395.09,314.19,395.71,313.83Zm-71.09,75.58c-.62-.35-1-.78-1-1.18s.36-.84,1-1.2a6.43,6.43,0,0,1,3.1-.73,6.24,6.24,0,0,1,3.06.72c.62.35,1,.78,1,1.18s-.36.84-1,1.2A7.22,7.22,0,0,1,324.62,389.41Z" transform="translate(-201.53 -110.23)"/><path class="cls-3" d="M447.82,317.42A3.15,3.15,0,0,0,449,315a3.57,3.57,0,0,0-2-3,8.43,8.43,0,0,0-4.12-1,8.24,8.24,0,0,0-4.08,1,3.47,3.47,0,0,0-2,2.94,3.55,3.55,0,0,0,2,3,8.32,8.32,0,0,0,4.12,1,8.81,8.81,0,0,0,2.72-.42l28.51,16.27-52.55,29.85,36.47,22.08,34.57-20.53a8.88,8.88,0,0,0,2.91.48,8.24,8.24,0,0,0,4.08-1,3.47,3.47,0,0,0,2-2.94,3.57,3.57,0,0,0-2-3,8.94,8.94,0,0,0-8.2,0,3.47,3.47,0,0,0-2,2.94,3.17,3.17,0,0,0,1.14,2.33l-32.46,19.32-32.46-19.66,52.64-29.89Zm-8-1.22c-.63-.37-1-.81-1-1.21s.35-.82,1-1.18a6.95,6.95,0,0,1,6.16,0c.63.36,1,.8,1,1.2s-.35.82-1,1.18A7.25,7.25,0,0,1,439.86,316.2Zm52.61,45.34a6.95,6.95,0,0,1,6.16,0c.63.36,1,.8,1,1.2s-.35.82-1,1.18a7.26,7.26,0,0,1-6.16,0c-.63-.36-1-.8-1-1.2S491.85,361.9,492.47,361.54Z" transform="translate(-201.53 -110.23)"/><path class="cls-4" d="M501.64,385a3.18,3.18,0,0,0-1.15-2.35l49.69-31L469,305.27a3,3,0,0,0,.84-2,3.56,3.56,0,0,0-2-3,8.47,8.47,0,0,0-4.13-1,8.23,8.23,0,0,0-4.07,1,3.48,3.48,0,0,0-2,2.94,3.55,3.55,0,0,0,2,3,8.32,8.32,0,0,0,4.12,1,8.84,8.84,0,0,0,3.32-.62l79,45.25-47.73,29.75a9.29,9.29,0,0,0-2.94-.48,8.3,8.3,0,0,0-4.08,1,3.46,3.46,0,0,0-2,2.94,3.56,3.56,0,0,0,2,3,8.36,8.36,0,0,0,4.13,1,8.23,8.23,0,0,0,4.07-1A3.45,3.45,0,0,0,501.64,385Zm-40.92-80.63c-.63-.37-1-.8-1-1.21s.35-.82,1-1.17a6.29,6.29,0,0,1,3.06-.72,6.5,6.5,0,0,1,3.11.73c.62.36,1,.8,1,1.2s-.35.82-1,1.18A7.22,7.22,0,0,1,460.72,304.39Zm37.92,81.81a7.28,7.28,0,0,1-6.17,0c-.62-.37-1-.8-1-1.21s.35-.82,1-1.17a6.26,6.26,0,0,1,3.06-.72,6.81,6.81,0,0,1,2.63.51l.23.37.25-.15c.62.36,1,.8,1,1.2S499.25,385.84,498.64,386.2Z" transform="translate(-201.53 -110.23)"/><path class="cls-5" d="M585.55,377.79a8.91,8.91,0,0,0-8.2,0,3.48,3.48,0,0,0-2,3,3,3,0,0,0,.8,2l-19.95,11.48-24.94-14.61,42.14-26.1-93.87-54.19a3,3,0,0,0,.77-2,3.55,3.55,0,0,0-2-3,8.94,8.94,0,0,0-8.2,0,3.46,3.46,0,0,0-2,2.94,3.55,3.55,0,0,0,2,3,8.43,8.43,0,0,0,4.12,1,8.79,8.79,0,0,0,3.44-.68l91.75,53-42.12,26.09,28.88,16.92L578,384a8.77,8.77,0,0,0,3.47.69,8.35,8.35,0,0,0,4.08-1,3.48,3.48,0,0,0,2-2.95A3.54,3.54,0,0,0,585.55,377.79Zm-114.4-79.31c-.63-.36-1-.8-1-1.2s.35-.82,1-1.18a6.4,6.4,0,0,1,3.06-.71,6.5,6.5,0,0,1,3.11.72c.62.37,1,.81,1,1.21s-.35.82-1,1.18A7.26,7.26,0,0,1,471.15,298.48Zm113.4,83.45a6.9,6.9,0,0,1-6.16,0c-.63-.37-1-.8-1-1.2s.35-.83,1-1.18a6.26,6.26,0,0,1,3.06-.72,6.43,6.43,0,0,1,3.1.73c.63.36,1,.8,1,1.2S585.17,381.58,584.55,381.93Z" transform="translate(-201.53 -110.23)"/><path class="cls-6" d="M627.36,233.77a9,9,0,0,0-8.2,0l-36.7-20.38,10.93-6.3a8.9,8.9,0,0,0,8-.07,3.47,3.47,0,0,0,2-2.95,3.53,3.53,0,0,0-2-3,8.91,8.91,0,0,0-8.2,0,3.48,3.48,0,0,0-2,3,2.9,2.9,0,0,0,.54,1.65l-13.41,7.73,39.27,21.82a2.91,2.91,0,0,0-.42,1.48,3.56,3.56,0,0,0,2,3,8.47,8.47,0,0,0,4.13,1,8.23,8.23,0,0,0,4.07-1,3.47,3.47,0,0,0,2-2.94A3.55,3.55,0,0,0,627.36,233.77Zm-33.15-30.93a6.24,6.24,0,0,1,3.06-.72,6.48,6.48,0,0,1,3.1.73c.63.36,1,.8,1,1.2s-.36.83-1,1.18a7.22,7.22,0,0,1-6.16,0c-.63-.36-1-.8-1-1.2S593.59,203.19,594.21,202.84Zm32.15,35.07a6.22,6.22,0,0,1-3.05.72,6.47,6.47,0,0,1-3.11-.73c-.63-.36-1-.8-1-1.2a.92.92,0,0,1,.18-.49l.36.2.52-.93a6.32,6.32,0,0,1,3-.67,6.43,6.43,0,0,1,3.1.72c.63.37,1,.81,1,1.21S627,237.56,626.36,237.91Z" transform="translate(-201.53 -110.23)"/><path class="cls-7" d="M361.16,294.34a3.53,3.53,0,0,0,2-3,3.47,3.47,0,0,0-2-2.95,8.91,8.91,0,0,0-8.2,0,3.52,3.52,0,0,0-2,3,3,3,0,0,0,.67,1.83l-37.49,21.13-21.6-11.29-23.3,12.32L212.83,280a3,3,0,0,0,.9-2.09,3.55,3.55,0,0,0-2-3,8.43,8.43,0,0,0-4.12-1,8.24,8.24,0,0,0-4.08,1,3.48,3.48,0,0,0-2,2.94,3.56,3.56,0,0,0,2,3,9,9,0,0,0,8,.1l-.3.49,58,36.34,23.37-12.37,21.54,11.26,39.21-22.1v0a8.52,8.52,0,0,0,3.66.79A8.35,8.35,0,0,0,361.16,294.34ZM210.72,279.12a7.22,7.22,0,0,1-6.16,0c-.63-.37-1-.8-1-1.21s.36-.82,1-1.17a6.26,6.26,0,0,1,3.06-.72,6.43,6.43,0,0,1,3.1.73c.63.36,1,.8,1,1.2S211.34,278.76,210.72,279.12ZM353,291.41c0-.4.36-.84,1-1.2a6.43,6.43,0,0,1,3.1-.73,6.26,6.26,0,0,1,3.06.72c.61.35,1,.78,1,1.18s-.36.84-1,1.2a7.22,7.22,0,0,1-6.16,0C353.36,292.24,353,291.81,353,291.41Z" transform="translate(-201.53 -110.23)"/><path class="cls-8" d="M392.44,312.06a3.55,3.55,0,0,0,2-3,3.45,3.45,0,0,0-2-2.94,8.94,8.94,0,0,0-8.2,0,3.54,3.54,0,0,0-2,3,3.17,3.17,0,0,0,1.31,2.47l-22.68,12.84,32.36,18.66-13.33,7.81L367,343.21a3,3,0,0,0,.9-2.1,3.55,3.55,0,0,0-2-3,8.4,8.4,0,0,0-4.12-1,8.3,8.3,0,0,0-4.08,1,3.46,3.46,0,0,0-2,2.94,3.55,3.55,0,0,0,2,3,8.32,8.32,0,0,0,4.12,1,8.91,8.91,0,0,0,3.25-.59l14.83,8.82,17.4-10.19L365,324.46l20.42-11.57-.21-.37a8.86,8.86,0,0,0,3.11.54A8.43,8.43,0,0,0,392.44,312.06Zm-33.71,30.21c-.63-.36-1-.8-1-1.2s.35-.82,1-1.18a6.4,6.4,0,0,1,3.06-.71,6.31,6.31,0,0,1,3.1.73c.63.36,1,.8,1,1.2s-.35.82-1,1.18A7.22,7.22,0,0,1,358.73,342.27Zm25.57-33.14c0-.41.36-.84,1-1.21a6.5,6.5,0,0,1,3.11-.73,6.4,6.4,0,0,1,3.06.72c.61.36,1,.78,1,1.18s-.36.84-1,1.2a7.22,7.22,0,0,1-6.16,0C384.65,310,384.3,309.52,384.3,309.13Z" transform="translate(-201.53 -110.23)"/><path class="cls-9" d="M515.9,269.73a8.24,8.24,0,0,0-4.08,1,3.48,3.48,0,0,0-2,2.94,3.57,3.57,0,0,0,2,3,9,9,0,0,0,8.2,0,3.48,3.48,0,0,0,2-2.95,3,3,0,0,0-.75-1.92l20-12.64L522.11,248l17.32-10.49a8.81,8.81,0,0,0,3.4.66,8.23,8.23,0,0,0,4.07-1,3.47,3.47,0,0,0,2-2.94,3.55,3.55,0,0,0-2-3,8.94,8.94,0,0,0-8.2,0,3.46,3.46,0,0,0-2,2.94,3,3,0,0,0,.86,2.06L518.1,248.08l19.28,11.14L519.5,270.49A8.64,8.64,0,0,0,515.9,269.73Zm23.8-36.67a6.95,6.95,0,0,1,6.16,0c.63.36,1,.8,1,1.2s-.35.82-1,1.18a7.26,7.26,0,0,1-6.16,0c-.63-.36-1-.8-1-1.2S539.09,233.42,539.7,233.06ZM519,274.88a7.22,7.22,0,0,1-6.16,0c-.63-.37-1-.8-1-1.21s.36-.82,1-1.17a6.26,6.26,0,0,1,3.06-.72,6.43,6.43,0,0,1,3.1.73c.63.36,1,.8,1,1.2S519.64,274.53,519,274.88Z" transform="translate(-201.53 -110.23)"/><path class="cls-10" d="M488.73,288.45a8.91,8.91,0,0,0-8.2,0,3.47,3.47,0,0,0-2,2.95,3.52,3.52,0,0,0,2,3,8.88,8.88,0,0,0,8.09.07l69,39.59.53.3,24.09-15.1a8.65,8.65,0,0,0,3.68.79,8.27,8.27,0,0,0,4.08-1,3.46,3.46,0,0,0,2-2.94,3.56,3.56,0,0,0-2-3,8.47,8.47,0,0,0-4.13-1,8.23,8.23,0,0,0-4.07,1,3.47,3.47,0,0,0-2,2.94,3,3,0,0,0,.7,1.87l-22.39,14L490.26,293a2.87,2.87,0,0,0,.48-1.57A3.52,3.52,0,0,0,488.73,288.45Zm94,26.4a6.22,6.22,0,0,1,3.05-.72,6.5,6.5,0,0,1,3.11.73c.62.36,1,.8,1,1.2s-.36.82-1,1.18a7.22,7.22,0,0,1-6.16,0c-.63-.36-1-.8-1-1.2S582.16,315.2,582.78,314.85Zm-101.2-22.27c-.63-.36-1-.8-1-1.2s.35-.83,1-1.18a6.29,6.29,0,0,1,3.06-.72,6.43,6.43,0,0,1,3.1.73c.63.36,1,.8,1,1.2s-.35.83-1,1.18A7.22,7.22,0,0,1,481.58,292.58Z" transform="translate(-201.53 -110.23)"/><path class="cls-6" d="M474.06,359.79a8.4,8.4,0,0,0,4.08-1,3.47,3.47,0,0,0,2-2.95,3.52,3.52,0,0,0-2-3,9,9,0,0,0-8.2,0,3.47,3.47,0,0,0-2,2.95,2.84,2.84,0,0,0,.5,1.59l-9,5.4.17.29a9,9,0,0,0-8.11,0,3.48,3.48,0,0,0-2,2.95,3.54,3.54,0,0,0,2,3,8.91,8.91,0,0,0,8.2,0,3.48,3.48,0,0,0,2-2.95,3,3,0,0,0-.7-1.86l9-5.41A8.52,8.52,0,0,0,474.06,359.79Zm-3.13-5.15a6.29,6.29,0,0,1,3.06-.72,6.43,6.43,0,0,1,3.1.73c.63.36,1,.8,1,1.2s-.35.83-1,1.18a7.22,7.22,0,0,1-6.16,0c-.63-.36-1-.8-1-1.2S470.32,355,470.93,354.64ZM458.7,367.28a7.22,7.22,0,0,1-6.16,0c-.63-.36-1-.8-1-1.2s.35-.83,1-1.18a6.26,6.26,0,0,1,3.06-.72,6.43,6.43,0,0,1,3.1.73c.63.37,1,.8,1,1.2S459.32,366.93,458.7,367.28Z" transform="translate(-201.53 -110.23)"/><path class="cls-11" d="M437.91,397.3a8.43,8.43,0,0,0-4.12-1,8.78,8.78,0,0,0-3.48.7L392,374.79l57.31-32.49-23.46-14a2.94,2.94,0,0,0,.71-1.88,3.57,3.57,0,0,0-2-3,8.43,8.43,0,0,0-4.12-1,8.24,8.24,0,0,0-4.08,1,3.47,3.47,0,0,0-2,2.94,3.57,3.57,0,0,0,2,3,8.32,8.32,0,0,0,4.12,1,8.57,8.57,0,0,0,3.56-.74l21.2,12.62-57.37,32.52,40.64,23.52a2.93,2.93,0,0,0-.75,1.93,3.56,3.56,0,0,0,2,3,8.35,8.35,0,0,0,4.12,1,8.24,8.24,0,0,0,4.08-1,3.44,3.44,0,0,0,2-2.94A3.55,3.55,0,0,0,437.91,397.3Zm-20.56-69.69c-.63-.36-1-.8-1-1.2s.35-.82,1-1.18a6.95,6.95,0,0,1,6.16,0c.63.36,1,.8,1,1.2s-.35.82-1,1.18A7.22,7.22,0,0,1,417.35,327.61Zm19.57,73.84a7.28,7.28,0,0,1-6.17,0c-.62-.37-1-.81-1-1.21s.35-.82,1-1.17a6.26,6.26,0,0,1,3.06-.72,6.43,6.43,0,0,1,3.1.73c.63.36,1,.8,1,1.2S437.53,401.09,436.92,401.45Z" transform="translate(-201.53 -110.23)"/><path class="cls-12" d="M349.18,357.38a3.56,3.56,0,0,0,2,3,8.46,8.46,0,0,0,4.12,1,8.24,8.24,0,0,0,4.08-1,3.47,3.47,0,0,0,2-2.94,3.55,3.55,0,0,0-2-3,8.94,8.94,0,0,0-8.06-.08L322.64,338l52-30.91-.44-.74a8.51,8.51,0,0,0,3.72.81,8.29,8.29,0,0,0,4.12-1,3.54,3.54,0,0,0,2-3,3.47,3.47,0,0,0-2-2.94,8.3,8.3,0,0,0-4.08-1,8.43,8.43,0,0,0-4.12,1,3.55,3.55,0,0,0-2,3,3.12,3.12,0,0,0,1.23,2.41L318.59,338l31.08,17.76A2.9,2.9,0,0,0,349.18,357.38ZM374.86,302a6.43,6.43,0,0,1,3.1-.73A6.29,6.29,0,0,1,381,302c.61.35,1,.78,1,1.17s-.36.84-1,1.21a7.22,7.22,0,0,1-6.16,0c-.61-.36-1-.78-1-1.18S374.23,302.38,374.86,302Zm-19.62,53.47a6.31,6.31,0,0,1,3.1.73c.63.36,1,.8,1,1.2s-.35.82-1,1.18a7.26,7.26,0,0,1-6.16,0c-.63-.36-1-.8-1-1.2s.36-.82,1-1.18A6.38,6.38,0,0,1,355.24,355.49Z" transform="translate(-201.53 -110.23)"/><path class="cls-13" d="M507.16,336.05a8.93,8.93,0,0,0-7.93-.14l-40.56-24.8a3,3,0,0,0,.78-2,3.54,3.54,0,0,0-2-3,9,9,0,0,0-8.2,0,3.48,3.48,0,0,0-2,2.95,3.55,3.55,0,0,0,2,3,8.43,8.43,0,0,0,4.12,1,8.74,8.74,0,0,0,3.43-.68l40.73,24.9A2.9,2.9,0,0,0,497,339a3.56,3.56,0,0,0,2,3,8.36,8.36,0,0,0,4.13,1,8.23,8.23,0,0,0,4.07-1,3.44,3.44,0,0,0,2-2.94A3.55,3.55,0,0,0,507.16,336.05Zm-56.87-25.76c-.63-.36-1-.8-1-1.2s.35-.82,1-1.18a6.35,6.35,0,0,1,3.06-.72,6.43,6.43,0,0,1,3.1.73c.63.37,1,.8,1,1.21s-.36.82-1,1.17A7.22,7.22,0,0,1,450.29,310.29Zm55.88,29.91a7.24,7.24,0,0,1-6.17,0c-.62-.36-1-.8-1-1.2s.35-.82,1-1.17a6.26,6.26,0,0,1,3.06-.72,6.43,6.43,0,0,1,3.1.73c.63.36,1,.8,1,1.2S506.78,339.84,506.17,340.2Z" transform="translate(-201.53 -110.23)"/><path class="cls-14" d="M278.2,275.59a8.43,8.43,0,0,0-4.12-1,8.24,8.24,0,0,0-4.08,1,3.47,3.47,0,0,0-2,2.94,3.55,3.55,0,0,0,2,3,8.32,8.32,0,0,0,4.12,1,8.68,8.68,0,0,0,3.46-.69l40.24,22.31,26.05-15-.09-.15a9.09,9.09,0,0,0,2.81.44,8.32,8.32,0,0,0,4.12-1,3.57,3.57,0,0,0,2-3,3.49,3.49,0,0,0-2-2.94,8.24,8.24,0,0,0-4.08-1,8.43,8.43,0,0,0-4.12,1,3.55,3.55,0,0,0-2,3,3.16,3.16,0,0,0,1.3,2.46l-24,13.8-38.36-21.28a3,3,0,0,0,.75-1.93A3.59,3.59,0,0,0,278.2,275.59Zm65.37,8.72a6.9,6.9,0,0,1,6.16,0c.61.35,1,.78,1,1.17s-.36.84-1,1.2a7.22,7.22,0,0,1-6.16,0c-.62-.36-1-.79-1-1.18S342.94,284.67,343.57,284.31ZM271,279.72c-.63-.36-1-.8-1-1.2s.35-.82,1-1.17a6.24,6.24,0,0,1,3.06-.72,6.31,6.31,0,0,1,3.1.73c.63.36,1,.8,1,1.2a1.28,1.28,0,0,1-.57.91l0,0,0,.05-.35.24A7.22,7.22,0,0,1,271,279.72Z" transform="translate(-201.53 -110.23)"/><path class="cls-6" d="M404.42,152.14a3.56,3.56,0,0,0,2,3,8.36,8.36,0,0,0,4.13,1,8.23,8.23,0,0,0,4.07-1,3.47,3.47,0,0,0,2-2.94,3.55,3.55,0,0,0-2-3,8.94,8.94,0,0,0-8.16,0l-34.2-18.88,29.37-17.72L467,148.69,440.74,165l-.26-.17a9,9,0,0,0-8.2,0,3.48,3.48,0,0,0-2,3,3.55,3.55,0,0,0,2,3,8.43,8.43,0,0,0,4.12,1,8.24,8.24,0,0,0,4.08-1,3.48,3.48,0,0,0,2-2.95,2.92,2.92,0,0,0-.32-1.28l28.84-18-68.93-38.08-.51-.28-33.41,20.15,36.7,20.26A2.79,2.79,0,0,0,404.42,152.14ZM439.48,169a6.26,6.26,0,0,1-3.06.72,6.43,6.43,0,0,1-3.1-.73c-.63-.36-1-.8-1-1.2s.35-.83,1-1.18a6.24,6.24,0,0,1,3.06-.72,6.43,6.43,0,0,1,3.1.73c.63.37,1,.8,1,1.2S440.09,168.66,439.48,169Zm-25.9-18c.63.36,1,.8,1,1.2s-.35.82-1,1.18a7.22,7.22,0,0,1-6.16,0c-.62-.36-1-.8-1-1.2a.91.91,0,0,1,.2-.51l.15.08.29-.52c.1-.08.21-.15.33-.23a6.95,6.95,0,0,1,6.16,0Z" transform="translate(-201.53 -110.23)"/><path class="cls-15" d="M505.81,146.27l-40.73,25.28L500.5,191,465.16,211.6l1,1.76L504.64,191l-35.52-19.52,38.7-24,0,0a9.17,9.17,0,0,0,3,.49,8.4,8.4,0,0,0,4.08-1,3.47,3.47,0,0,0,2-3,3.55,3.55,0,0,0-2-3,8.43,8.43,0,0,0-4.12-1,8.3,8.3,0,0,0-4.08,1,3.47,3.47,0,0,0-2,2.95A3.16,3.16,0,0,0,505.81,146.27Zm1.84-3.53a6.29,6.29,0,0,1,3.06-.72,6.43,6.43,0,0,1,3.1.73c.63.36,1,.8,1,1.2s-.35.83-1,1.18a7.22,7.22,0,0,1-6.16,0c-.63-.37-1-.8-1-1.2S507,143.09,507.65,142.74Z" transform="translate(-201.53 -110.23)"/><path class="cls-6" d="M246.27,349.13l40.9-23.92a8.66,8.66,0,0,0,3.72.81,8.4,8.4,0,0,0,4.08-1,3.47,3.47,0,0,0,2-2.95,3.52,3.52,0,0,0-2-3,8.91,8.91,0,0,0-8.2,0,3.47,3.47,0,0,0-2,2.95,2.94,2.94,0,0,0,.68,1.83l-39.2,22.88-21.82-12.61a2.77,2.77,0,0,0,.23-1.09,3.55,3.55,0,0,0-2-3,8.94,8.94,0,0,0-8.2,0,3.45,3.45,0,0,0-2,2.94,3.56,3.56,0,0,0,2,3,8.46,8.46,0,0,0,4.12,1,8.24,8.24,0,0,0,4.08-1l.42-.27Zm40.53-27.08c0-.4.35-.83,1-1.18a6.26,6.26,0,0,1,3.06-.72,6.43,6.43,0,0,1,3.1.73c.63.36,1,.8,1,1.2s-.35.83-1,1.18a7.24,7.24,0,0,1-6.17,0l-.26-.18-.2-.33-.12.06A1.12,1.12,0,0,1,286.8,322.05Zm-71.32,12.17c-.63-.36-1-.8-1-1.2s.36-.82,1-1.18a7,7,0,0,1,6.16,0c.63.37,1,.8,1,1.21s-.35.82-1,1.17A7.22,7.22,0,0,1,215.48,334.22Z" transform="translate(-201.53 -110.23)"/><path class="cls-16" d="M364,300.85l-.22-.39a8.93,8.93,0,0,0,7.78-.21,3.56,3.56,0,0,0,2-3,3.46,3.46,0,0,0-2-2.94,8.94,8.94,0,0,0-8.2,0,3.55,3.55,0,0,0-2,3,3.07,3.07,0,0,0,1,2.15l-111.76,64a1.64,1.64,0,0,0-.22-.14,8.94,8.94,0,0,0-8.2,0,3.46,3.46,0,0,0-2,2.94,3.56,3.56,0,0,0,2,3,8.46,8.46,0,0,0,4.12,1,8.24,8.24,0,0,0,4.08-1,3.47,3.47,0,0,0,2-2.94,2.86,2.86,0,0,0-.33-1.31Zm.4-4.73a6.95,6.95,0,0,1,6.16,0c.61.36,1,.79,1,1.18s-.36.84-1,1.2a7.24,7.24,0,0,1-6.17,0c-.61-.36-1-.79-1-1.18S363.8,296.48,364.43,296.12Zm-115,71.35a7.24,7.24,0,0,1-6.17,0c-.62-.36-1-.8-1-1.2s.35-.82,1-1.18a6.4,6.4,0,0,1,3.06-.71,6.31,6.31,0,0,1,3.1.73c.63.36,1,.8,1,1.2S250,367.11,249.38,367.47Z" transform="translate(-201.53 -110.23)"/><path class="cls-17" d="M530.11,295.43,556,280a8.83,8.83,0,0,0,3.09.53,8.35,8.35,0,0,0,4.08-1,3.48,3.48,0,0,0,2-2.95,3.57,3.57,0,0,0-2-3,8.94,8.94,0,0,0-8.2,0,3.48,3.48,0,0,0-2,2.95,3.17,3.17,0,0,0,1,2.25l-23.93,14.26-19.2-11.61a2.93,2.93,0,0,0,.68-1.84,3.55,3.55,0,0,0-2-3,8.94,8.94,0,0,0-8.2,0,3.45,3.45,0,0,0-2,2.94,3.56,3.56,0,0,0,2,3,8.46,8.46,0,0,0,4.12,1,8.24,8.24,0,0,0,4.08-1l.13-.08-.29.47ZM556,275.37a6.24,6.24,0,0,1,3.06-.72,6.43,6.43,0,0,1,3.1.73c.63.36,1,.8,1,1.2s-.35.83-1,1.18a7.22,7.22,0,0,1-6.16,0c-.63-.36-1-.8-1-1.2S555.39,275.72,556,275.37Zm-47.42,5.41a7.22,7.22,0,0,1-6.16,0c-.62-.36-1-.8-1-1.2s.36-.82,1-1.18a6.9,6.9,0,0,1,6.16,0c.63.37,1,.8,1,1.21S509.21,280.43,508.59,280.78Z" transform="translate(-201.53 -110.23)"/><path class="cls-6" d="M508.58,168.23a3,3,0,0,0,.77-2,3.55,3.55,0,0,0-2-3,8.43,8.43,0,0,0-4.12-1,8.27,8.27,0,0,0-4.08,1,3.47,3.47,0,0,0-2,2.94,3.54,3.54,0,0,0,2,3,8.35,8.35,0,0,0,4.12,1,8.73,8.73,0,0,0,3.47-.69L525,180.31l33.35-20.17a.57.57,0,0,0,.13.08,8.94,8.94,0,0,0,8.2,0,3.46,3.46,0,0,0,2-2.94,3.55,3.55,0,0,0-2-3,8.43,8.43,0,0,0-4.12-1,8.3,8.3,0,0,0-4.08,1,3.46,3.46,0,0,0-2,2.94,2.88,2.88,0,0,0,.39,1.41L525,177.94Zm-8.4-.79c-.62-.37-1-.8-1-1.21s.36-.82,1-1.17a6.26,6.26,0,0,1,3.06-.72,6.43,6.43,0,0,1,3.1.73c.63.36,1,.8,1,1.2a1.24,1.24,0,0,1-.54.89l-.15-.1-.2.34-.08,0A7.22,7.22,0,0,1,500.18,167.44Zm59.29-11.36a6.26,6.26,0,0,1,3.06-.72,6.43,6.43,0,0,1,3.1.73c.63.36,1,.8,1,1.2s-.35.82-1,1.18a7.24,7.24,0,0,1-6.17,0c-.62-.37-1-.81-1-1.21S558.86,156.43,559.47,156.08Z" transform="translate(-201.53 -110.23)"/><path class="cls-18" d="M513.71,204.07l36.72-22.33a9,9,0,0,0,3,.52,8.3,8.3,0,0,0,4.08-1,3.46,3.46,0,0,0,2-2.94,3.56,3.56,0,0,0-2-3,8.35,8.35,0,0,0-4.12-1,8.24,8.24,0,0,0-4.08,1,3.45,3.45,0,0,0-2,2.94,3.13,3.13,0,0,0,1.09,2.28l-38.79,23.59,12.62,6.93-35.34,20.57,1,1.77L526.41,211Zm36.63-27a7,7,0,0,1,6.17,0c.62.36,1,.8,1,1.2s-.35.82-1,1.18a7.22,7.22,0,0,1-6.16,0c-.63-.36-1-.8-1-1.2S549.73,177.47,550.34,177.11Z" transform="translate(-201.53 -110.23)"/><path class="cls-19" d="M428.2,225.11l38.46-22.39-59.37-32.35,34.19-21.32-26.26-14a2.89,2.89,0,0,0,.36-1.37,3.54,3.54,0,0,0-2-3,8.91,8.91,0,0,0-8.2,0,3.48,3.48,0,0,0-2,2.95,3.52,3.52,0,0,0,2,3,8.91,8.91,0,0,0,8.2,0l.12-.08,23.69,12.6-34.16,21.3,59.27,32.29-35.33,20.57Zm-21.79-90.22c-.63-.36-1-.8-1-1.2s.35-.83,1-1.18a6.26,6.26,0,0,1,3.06-.72,6.43,6.43,0,0,1,3.1.73c.63.36,1,.8,1,1.2s-.35.83-1,1.18A7.22,7.22,0,0,1,406.41,134.89Z" transform="translate(-201.53 -110.23)"/><path class="cls-20" d="M222.76,225.26a8.24,8.24,0,0,0,4.08,1,8.89,8.89,0,0,0,3.41-.66l52.68,30.88-12.5,7.33,47,27.84,15.39-8.75a8.6,8.6,0,0,0,3.36.65,8.43,8.43,0,0,0,4.12-1,3.55,3.55,0,0,0,2-3,3.46,3.46,0,0,0-2-2.94,8.94,8.94,0,0,0-8.2,0,3.57,3.57,0,0,0-2,3,3,3,0,0,0,.82,2l-13.48,7.66-43-25.47L287,256.46l-54.84-32.14a3,3,0,0,0,.85-2,3.47,3.47,0,0,0-2-2.94,8.94,8.94,0,0,0-8.2,0,3.55,3.55,0,0,0-2,3A3.47,3.47,0,0,0,222.76,225.26ZM333.14,278.4a6.9,6.9,0,0,1,6.16,0c.62.36,1,.78,1,1.18s-.36.84-1,1.2a7.22,7.22,0,0,1-6.16,0c-.62-.35-1-.78-1-1.17S332.51,278.77,333.14,278.4ZM223.8,221.12a6.95,6.95,0,0,1,6.16,0c.62.36,1,.79,1,1.18a1.37,1.37,0,0,1-.64,1h0v0a2.7,2.7,0,0,1-.33.22,7.22,7.22,0,0,1-6.16,0c-.62-.36-1-.79-1-1.18S223.17,221.48,223.8,221.12Z" transform="translate(-201.53 -110.23)"/><path class="cls-21" d="M264.62,231.51a8.23,8.23,0,0,0,4.07,1,8.54,8.54,0,0,0,4-.94L317,258.63,298.7,269.52,316.64,280l5.29-3.19a8.46,8.46,0,0,0,3.82.86,8.32,8.32,0,0,0,4.12-1,3.53,3.53,0,0,0,2-3,3.48,3.48,0,0,0-2-2.95,8.24,8.24,0,0,0-4.08-1,8.43,8.43,0,0,0-4.12,1,3.57,3.57,0,0,0-2,3,2.87,2.87,0,0,0,.57,1.7l-3.63,2.19-13.91-8.09,18.18-10.85-46.58-28.5a2.93,2.93,0,0,0,.51-1.62,3.46,3.46,0,0,0-2-2.94,8.27,8.27,0,0,0-4.08-1,8.43,8.43,0,0,0-4.12,1,3.55,3.55,0,0,0-2,3A3.47,3.47,0,0,0,264.62,231.51Zm58.09,41a6.43,6.43,0,0,1,3.1-.73,6.24,6.24,0,0,1,3.06.72c.62.35,1,.78,1,1.18s-.36.83-1,1.2a7.22,7.22,0,0,1-6.16,0c-.61-.35-1-.78-1-1.18S322.08,272.86,322.71,272.5Zm-57-45.13a6.43,6.43,0,0,1,3.1-.73,6.26,6.26,0,0,1,3.06.72c.61.35,1,.78,1,1.17s-.36.84-1,1.2a7.22,7.22,0,0,1-6.16,0c-.62-.36-1-.79-1-1.18S265,227.73,265.66,227.37Z" transform="translate(-201.53 -110.23)"/><path class="cls-22" d="M334.6,132.77a8.3,8.3,0,0,0,4.08,1,9.34,9.34,0,0,0,2.63-.38l34.51,19.52-31.24,17.35L417.34,213l1-1.76-69.68-41L380,152.91,343.5,132.28a3.27,3.27,0,0,0,1.31-2.49,3.46,3.46,0,0,0-2-2.94,8.3,8.3,0,0,0-4.08-1,8.4,8.4,0,0,0-4.12,1,3.55,3.55,0,0,0-2,3A3.46,3.46,0,0,0,334.6,132.77Zm1-4.14a6.5,6.5,0,0,1,3.11-.73,6.29,6.29,0,0,1,3.06.72c.61.35,1,.78,1,1.17s-.36.84-1,1.21a7.22,7.22,0,0,1-6.16,0c-.61-.36-1-.78-1-1.18S335,129,335.64,128.63Z" transform="translate(-201.53 -110.23)"/><path class="cls-23" d="M255.51,190.94a8.24,8.24,0,0,0,4.08,1,9,9,0,0,0,3.21-.57l31,18.21-11.42,6.52,68.29,40,1-1.76-65.25-38.2,11.42-6.52-33.11-19.45a3.15,3.15,0,0,0,1-2.18,3.47,3.47,0,0,0-2-2.94,8.94,8.94,0,0,0-8.2,0,3.55,3.55,0,0,0-2,3A3.47,3.47,0,0,0,255.51,190.94Zm1-4.14a6.95,6.95,0,0,1,6.16,0c.61.36,1,.79,1,1.18s-.36.84-1,1.2a7.22,7.22,0,0,1-6.16,0c-.62-.35-1-.78-1-1.17S255.92,187.16,256.55,186.8Z" transform="translate(-201.53 -110.23)"/><path class="cls-6" d="M298.72,149.73a9,9,0,0,0,8.19,0l18,10.56.51-.88.5.89,13.55-7.61a8.8,8.8,0,0,0,2.86.47,8.43,8.43,0,0,0,4.12-1,3.55,3.55,0,0,0,2-3,3.48,3.48,0,0,0-2-3,9,9,0,0,0-8.2,0,3.55,3.55,0,0,0-2,3,3.09,3.09,0,0,0,1.11,2.31l-11.94,6.7-17-9.95a2.85,2.85,0,0,0,.46-1.53,3.47,3.47,0,0,0-2-2.94,8.3,8.3,0,0,0-4.08-1,8.43,8.43,0,0,0-4.12,1,3.55,3.55,0,0,0-2,3A3.47,3.47,0,0,0,298.72,149.73ZM339.29,148a6.43,6.43,0,0,1,3.1-.73,6.24,6.24,0,0,1,3.06.72c.62.35,1,.78,1,1.18s-.36.84-1,1.2a7.22,7.22,0,0,1-6.16,0c-.61-.35-1-.78-1-1.18S338.66,148.38,339.29,148Zm-39.52-2.43a6.43,6.43,0,0,1,3.1-.73,6.29,6.29,0,0,1,3.06.72c.61.35,1,.78,1,1.17s-.36.84-1,1.21a7.25,7.25,0,0,1-6.16,0c-.61-.35-1-.78-1-1.18S299.14,145.94,299.77,145.58Z" transform="translate(-201.53 -110.23)"/><path class="cls-24" d="M551,315.64,500.08,287.8a3.1,3.1,0,0,0,1.09-2.29,3.55,3.55,0,0,0-2-3,8.43,8.43,0,0,0-4.12-1,8.3,8.3,0,0,0-4.08,1,3.46,3.46,0,0,0-2,2.94,3.55,3.55,0,0,0,2,3,8.92,8.92,0,0,0,8.19,0h0l-.51.92L551.05,318l35.82-20.69,30.65,17.12-37.58,23a8.41,8.41,0,0,0-4-1,8.24,8.24,0,0,0-4.08,1,3.47,3.47,0,0,0-2,2.94,3.55,3.55,0,0,0,2,3,8.94,8.94,0,0,0,8.2,0,3.46,3.46,0,0,0,2-2.94,2.89,2.89,0,0,0-.49-1.59l40-24.54-34.7-19.38Zm-52.86-28.95a7.28,7.28,0,0,1-6.17,0c-.62-.37-1-.81-1-1.21s.35-.82,1-1.18a6.95,6.95,0,0,1,6.16,0c.63.36,1,.8,1,1.2S498.78,286.33,498.17,286.69ZM580,340.45c0,.39-.36.82-1,1.18a6.95,6.95,0,0,1-6.16,0c-.63-.36-1-.8-1-1.2s.35-.82,1-1.18a6.95,6.95,0,0,1,6.16,0l.09.06.47.76.23-.14A.94.94,0,0,1,580,340.45Z" transform="translate(-201.53 -110.23)"/><path class="cls-6" d="M323.53,363.34a9,9,0,0,0-8.2,0,3.54,3.54,0,0,0-2,3,3.48,3.48,0,0,0,2,2.94,8.24,8.24,0,0,0,4.08,1h0a8.48,8.48,0,0,0,4-1l25,15.37a3,3,0,0,0-.7,1.86,3.47,3.47,0,0,0,2,3,8.4,8.4,0,0,0,4.08,1,8.3,8.3,0,0,0,4.12-1,3.52,3.52,0,0,0,2-3,3.47,3.47,0,0,0-2-2.95,8.92,8.92,0,0,0-8.11,0l.17-.28-25-15.36a2.9,2.9,0,0,0,.5-1.59A3.48,3.48,0,0,0,323.53,363.34Zm-4.14,4.88h0a6.24,6.24,0,0,1-3.06-.72c-.62-.35-1-.78-1-1.17s.36-.84,1-1.21a6.43,6.43,0,0,1,3.1-.73,6.26,6.26,0,0,1,3.06.72c.61.35,1,.78,1,1.18s-.36.84-1,1.2A6.43,6.43,0,0,1,319.39,368.22Zm31.39,17.11a6.43,6.43,0,0,1,3.1-.73,6.26,6.26,0,0,1,3.06.72c.61.35,1,.78,1,1.18s-.36.84-1,1.2a7.24,7.24,0,0,1-6.17,0c-.61-.35-1-.78-1-1.18S350.15,385.69,350.78,385.33Z" transform="translate(-201.53 -110.23)"/><path class="cls-6" d="M245.2,274.34a9,9,0,0,0-8.2,0,3.54,3.54,0,0,0-2,3,3.47,3.47,0,0,0,2,2.94,8.3,8.3,0,0,0,4.08,1h0a8.52,8.52,0,0,0,4-1l25,15.37a3,3,0,0,0-.69,1.86,3.47,3.47,0,0,0,2,3,8.91,8.91,0,0,0,8.2,0,3.52,3.52,0,0,0,2-3,3.48,3.48,0,0,0-2-2.95,8.35,8.35,0,0,0-4.08-1,8.48,8.48,0,0,0-4,1l.17-.28-25-15.36a2.82,2.82,0,0,0,.5-1.59A3.47,3.47,0,0,0,245.2,274.34Zm-4.15,4.88h0a6.29,6.29,0,0,1-3.06-.72c-.61-.35-1-.78-1-1.17s.36-.84,1-1.21a6.43,6.43,0,0,1,3.1-.73,6.29,6.29,0,0,1,3.06.72c.61.35,1,.78,1,1.18s-.36.84-1,1.2A6.43,6.43,0,0,1,241.05,279.22Zm31.39,17.11a6.48,6.48,0,0,1,3.1-.73,6.24,6.24,0,0,1,3.06.72c.62.35,1,.78,1,1.18s-.36.84-1,1.2a7.22,7.22,0,0,1-6.16,0c-.61-.35-1-.78-1-1.18S271.81,296.69,272.44,296.33Z" transform="translate(-201.53 -110.23)"/><path class="cls-6" d="M297.89,196.17a8.24,8.24,0,0,0,4.08,1,8.36,8.36,0,0,0,4-1l9,5.42a3,3,0,0,0-.69,1.86,3.46,3.46,0,0,0,2,2.94,8.94,8.94,0,0,0,8.2,0,3.55,3.55,0,0,0,2-3,3.47,3.47,0,0,0-2-2.94,8.24,8.24,0,0,0-4.08-1,8.48,8.48,0,0,0-4,1l.17-.28-9-5.4a2.94,2.94,0,0,0,.49-1.6,3.46,3.46,0,0,0-2-2.94,8.24,8.24,0,0,0-4.08-1,8.43,8.43,0,0,0-4.12,1,3.55,3.55,0,0,0-2,3A3.47,3.47,0,0,0,297.89,196.17Zm19.45,6.11a6.48,6.48,0,0,1,3.1-.73,6.24,6.24,0,0,1,3.06.72c.62.35,1,.78,1,1.17s-.36.84-1,1.21a7,7,0,0,1-6.16,0c-.61-.36-1-.79-1-1.18S316.72,202.64,317.34,202.28ZM298.93,192a6.43,6.43,0,0,1,3.1-.73,6.26,6.26,0,0,1,3.06.72c.61.35,1,.78,1,1.17s-.36.84-1,1.21a7.25,7.25,0,0,1-6.16,0c-.62-.36-1-.79-1-1.18S298.3,192.39,298.93,192Z" transform="translate(-201.53 -110.23)"/><path class="cls-6" d="M614,266.79a8.23,8.23,0,0,0,4.07-1,3.45,3.45,0,0,0,2-2.94,3.55,3.55,0,0,0-2-3,8.94,8.94,0,0,0-8.2,0,3.46,3.46,0,0,0-2,2.94,2.82,2.82,0,0,0,.5,1.59l-45.69,26.22.17.28a8.48,8.48,0,0,0-4-1,8.24,8.24,0,0,0-4.08,1,3.47,3.47,0,0,0-2,2.94,3.55,3.55,0,0,0,2,3,8.94,8.94,0,0,0,8.2,0,3.46,3.46,0,0,0,2-2.94,3,3,0,0,0-.69-1.86L610,265.83A8.38,8.38,0,0,0,614,266.79Zm-3.13-5.15a7,7,0,0,1,6.16,0c.63.37,1,.81,1,1.21s-.35.82-1,1.17a7.24,7.24,0,0,1-6.17,0c-.62-.36-1-.8-1-1.2S610.3,262,610.91,261.64ZM562,295.1a7.22,7.22,0,0,1-6.16,0c-.63-.37-1-.8-1-1.21s.35-.82,1-1.17a6.24,6.24,0,0,1,3.06-.72,6.43,6.43,0,0,1,3.1.73c.63.36,1,.8,1,1.2S562.59,294.74,562,295.1Z" transform="translate(-201.53 -110.23)"/><path class="cls-6" d="M590.72,244.67a8.4,8.4,0,0,0,4.08-1,3.47,3.47,0,0,0,2-2.95,3.55,3.55,0,0,0-2-3,8.43,8.43,0,0,0-4.12-1,8.3,8.3,0,0,0-4.08,1,3.47,3.47,0,0,0-2,3,2.87,2.87,0,0,0,.5,1.59l-22.58,13.17.17.29a8.92,8.92,0,0,0-8.11,0,3.46,3.46,0,0,0-2,2.94,3.56,3.56,0,0,0,2,3,8.35,8.35,0,0,0,4.12,1,8.24,8.24,0,0,0,4.08-1,3.47,3.47,0,0,0,2-2.94,3,3,0,0,0-.7-1.86l22.6-13.2A8.41,8.41,0,0,0,590.72,244.67Zm-3.13-5.14a6.26,6.26,0,0,1,3.06-.72,6.43,6.43,0,0,1,3.1.73c.63.36,1,.8,1,1.2s-.35.83-1,1.18a7.22,7.22,0,0,1-6.16,0c-.63-.37-1-.8-1-1.2S587,239.88,587.59,239.53ZM561.77,260a7.25,7.25,0,0,1-6.16,0c-.63-.37-1-.81-1-1.21s.36-.82,1-1.17a6.9,6.9,0,0,1,6.16,0c.63.36,1,.8,1,1.2S562.39,259.59,561.77,260Z" transform="translate(-201.53 -110.23)"/><path class="cls-25" d="M388.51,243.46l1-1.76-55.32-32.28,20.34-12.59-46.33-27.06a3,3,0,0,0,.71-1.88,3.46,3.46,0,0,0-2-2.94,8.94,8.94,0,0,0-8.2,0,3.56,3.56,0,0,0-2,3,3.48,3.48,0,0,0,2,2.94,8.24,8.24,0,0,0,4.08,1,8.6,8.6,0,0,0,3.63-.77l44.16,25.79-20.34,12.59ZM299.75,169.1c-.62-.35-1-.78-1-1.17s.36-.84,1-1.21a6.9,6.9,0,0,1,6.16,0c.62.36,1,.78,1,1.18s-.36.84-1,1.2A7.22,7.22,0,0,1,299.75,169.1Z" transform="translate(-201.53 -110.23)"/><path class="cls-6" d="M311.34,347.29a8.94,8.94,0,0,0-8.2,0,3.47,3.47,0,0,0-2,2.94,2.91,2.91,0,0,0,.53,1.64l-32.76,18.49,22.42,12.24a2.8,2.8,0,0,0-.44,1.51,3.56,3.56,0,0,0,2,3,8.47,8.47,0,0,0,4.13,1,8.23,8.23,0,0,0,4.07-1,3.45,3.45,0,0,0,2-2.94,3.55,3.55,0,0,0-2-3,9,9,0,0,0-8.15,0l-19.81-10.81,30.22-17.05a8.39,8.39,0,0,0,3.94.92,8.24,8.24,0,0,0,4.08-1,3.47,3.47,0,0,0,2-2.94A3.55,3.55,0,0,0,311.34,347.29Zm-11.28,35.65c.63.36,1,.8,1,1.2s-.35.82-1,1.18a7,7,0,0,1-6.17,0c-.62-.36-1-.8-1-1.2a.92.92,0,0,1,.2-.53h0l0-.09a2.51,2.51,0,0,1,.69-.56,6.95,6.95,0,0,1,6.16,0Zm10.28-31.5a7.22,7.22,0,0,1-6.16,0c-.63-.36-1-.8-1-1.2s.35-.82,1-1.18a6.95,6.95,0,0,1,6.16,0c.63.36,1,.8,1,1.2S311,351.08,310.34,351.44Z" transform="translate(-201.53 -110.23)"/><path class="cls-26" d="M494,242.54l1,1.75,96.66-57.74-.24-.4a9,9,0,0,0,7.94-.11,3.47,3.47,0,0,0,2-2.95,3.56,3.56,0,0,0-2-3,8.46,8.46,0,0,0-4.12-1,8.24,8.24,0,0,0-4.08,1,3.48,3.48,0,0,0-2,2.95,3.05,3.05,0,0,0,.89,2.08Zm98.2-60.66a6.3,6.3,0,0,1,3.07-.72,6.48,6.48,0,0,1,3.1.73c.62.36,1,.8,1,1.2s-.35.83-1,1.18a7.22,7.22,0,0,1-6.16,0c-.63-.37-1-.8-1-1.2S591.57,182.23,592.18,181.88Z" transform="translate(-201.53 -110.23)"/><g class="cls-27"><path class="cls-28" d="M418.1,338a24.7,24.7,0,0,0,12.31-3l81.53-47.18c4.49-2.59,7.06-6.69,7.06-11.25,0-5-3.1-9.65-8.5-12.77l-74-42.7a30.32,30.32,0,0,0-15-3.8,24.64,24.64,0,0,0-12.3,3l-81.54,47.18c-4.48,2.59-7.06,6.69-7.06,11.25,0,5,3.1,9.65,8.5,12.77l74,42.7A30.35,30.35,0,0,0,418.1,338Z" transform="translate(-201.53 -110.23)"/><path class="cls-29" d="M410,220.64l-79.58,46.05c-4.08,2.36-7.06,6.55-7.23,10.69-.2,4.78,2.47,9.4,7.84,12.5L403.91,332a29.34,29.34,0,0,0,14.56,3.67,26,26,0,0,0,8.78-1.48,21.06,21.06,0,0,0,3.18-1.48l79.41-45.95c4.08-2.36,7-6.54,7.19-10.68.2-4.78-2.47-9.4-7.84-12.49l-72.54-41.89a29,29,0,0,0-5.38-2.38,31.07,31.07,0,0,0-9.23-1.49A23.81,23.81,0,0,0,410,220.64Z" transform="translate(-201.53 -110.23)"/><path class="cls-30" d="M410.63,221,333,265.89c-3.67,2.12-7.07,6.43-7.39,10.14-.4,4.59,1.84,9.15,7.18,12.23l71.88,41.5a28.33,28.33,0,0,0,14.17,3.54,25,25,0,0,0,8.53-1.5,23,23,0,0,0,3.08-1.46l77.28-44.72c3.67-2.12,7-6.39,7.34-10.11.4-4.59-1.85-9.15-7.18-12.22l-71.13-41.07a33.39,33.39,0,0,0-5.25-2.39,30.71,30.71,0,0,0-9-1.56A23,23,0,0,0,410.63,221Z" transform="translate(-201.53 -110.23)"/><path class="cls-31" d="M411.3,221.31,335.62,265.1c-3.26,1.88-7.11,6.29-7.55,9.58-.6,4.43,1.21,8.9,6.51,12l70.85,40.9A27.52,27.52,0,0,0,419.22,331a24.44,24.44,0,0,0,8.27-1.52,27.36,27.36,0,0,0,3-1.44l75.16-43.49c3.26-1.88,7-6.25,7.47-9.54.6-4.43-1.21-8.89-6.51-11.95l-69.72-40.26a37,37,0,0,0-5.13-2.38,30.22,30.22,0,0,0-8.81-1.64A22.28,22.28,0,0,0,411.3,221.31Z" transform="translate(-201.53 -110.23)"/><path class="cls-32" d="M412,221.64,338.25,264.3c-2.86,1.65-7.72,6.12-7.72,9-1.58,4.1.59,8.65,5.85,11.69l69.8,40.3a26.48,26.48,0,0,0,13.41,3.28,23.45,23.45,0,0,0,8-1.53c.73-.29,2.24-1.05,2.89-1.42l73-42.26c2.86-1.65,7.62-6.06,7.62-9,1.58-4.1-.59-8.65-5.86-11.69L437,223.29a43.35,43.35,0,0,0-5-2.38,29.47,29.47,0,0,0-8.61-1.72A21.57,21.57,0,0,0,412,221.64Z" transform="translate(-201.53 -110.23)"/><path class="cls-33" d="M412.64,222,340.87,263.5c-2.45,1.42-7.88,6-7.88,8.47-2,3.87,0,8.4,5.19,11.42l68.76,39.7a25.58,25.58,0,0,0,13,3.15,22.52,22.52,0,0,0,7.77-1.56c.63-.24,2.23-1.08,2.79-1.4l70.9-41c2.44-1.41,7.75-5.91,7.75-8.39,2-3.87,0-8.4-5.19-11.42l-66.89-38.62a51.08,51.08,0,0,0-4.87-2.38,29.19,29.19,0,0,0-8.4-1.8A20.88,20.88,0,0,0,412.64,222Z" transform="translate(-201.53 -110.23)"/><path class="cls-34" d="M413.31,222.31l-69.82,40.4c-2,1.17-8,5.84-8,7.91-2.38,3.64-.67,8.15,4.52,11.15l67.73,39.1a24.57,24.57,0,0,0,12.63,3,21.49,21.49,0,0,0,7.52-1.57c.52-.21,2.23-1.11,2.69-1.38l68.77-39.79c2-1.18,7.89-5.75,7.89-7.82,2.38-3.64.67-8.15-4.53-11.15L437.2,224.36c-.77-.44-3.87-2.05-4.75-2.37a28,28,0,0,0-8.19-1.88A20,20,0,0,0,413.31,222.31Z" transform="translate(-201.53 -110.23)"/><path class="cls-35" d="M414,222.64l-67.86,39.27c-1.64.94-8.22,5.7-8.22,7.35-2.76,3.42-1.29,7.9,3.87,10.88l66.68,38.5a23.64,23.64,0,0,0,12.25,2.89,20.75,20.75,0,0,0,7.27-1.59c.42-.17,2.22-1.14,2.59-1.36L497.21,280c1.63-.94,8-5.6,8-7.25,2.77-3.42,1.29-7.9-3.87-10.88l-64.06-37c-.62-.35-3.92-2.11-4.62-2.38a28,28,0,0,0-8-2A19.39,19.39,0,0,0,414,222.64Z" transform="translate(-201.53 -110.23)"/><path class="cls-36" d="M414.65,223l-65.91,38.14c-1.23.71-8.38,5.56-8.38,6.8-3.16,3.19-1.92,7.65,3.21,10.61l65.64,37.9a22.76,22.76,0,0,0,11.87,2.76,20,20,0,0,0,7-1.61c.31-.13,2.22-1.18,2.5-1.34L495.1,278.9c1.23-.71,8.17-5.44,8.17-6.68,3.17-3.19,1.92-7.65-3.2-10.61l-62.65-36.17c-.46-.27-4-2.17-4.5-2.38a27.28,27.28,0,0,0-7.77-2A18.67,18.67,0,0,0,414.65,223Z" transform="translate(-201.53 -110.23)"/><path class="cls-37" d="M415.32,223.31l-64,37c-.81.47-8.54,5.41-8.54,6.24-3.56,3-2.55,7.4,2.55,10.34L410,314.2a21.85,21.85,0,0,0,11.48,2.62,18.81,18.81,0,0,0,6.76-1.62c.21-.09,2.21-1.21,2.4-1.32L493,277.78c.81-.47,8.31-5.28,8.31-6.11,3.56-3,2.55-7.4-2.55-10.34L437.53,226c-.31-.17-4-2.23-4.37-2.37a26.59,26.59,0,0,0-7.57-2.1A17.84,17.84,0,0,0,415.32,223.31Z" transform="translate(-201.53 -110.23)"/><path class="cls-38" d="M416,223.64l-62,35.88c-.41.23-8.71,5.27-8.71,5.69-3.95,2.73-3.18,7.14,1.88,10.06L410.72,312a20.93,20.93,0,0,0,11.1,2.5,18,18,0,0,0,6.51-1.65c.1,0,2.21-1.24,2.3-1.29l60.26-34.87c.41-.24,8.45-5.13,8.45-5.54,4-2.74,3.18-7.15-1.88-10.07l-59.82-34.54c-.16-.09-4.07-2.3-4.24-2.37A26,26,0,0,0,426,222,17.19,17.19,0,0,0,416,223.64Z" transform="translate(-201.53 -110.23)"/><path class="cls-39" d="M428.45,310.45l68.92-39.88c4.35-2.51,3.81-6.9-1.21-9.8l-62.53-36.09c-5-2.91-12.62-3.22-17-.71l-68.92,39.88c-4.35,2.51-3.8,6.9,1.22,9.8l62.52,36.1C416.5,312.65,424.1,313,428.45,310.45Z" transform="translate(-201.53 -110.23)"/></g><path class="cls-40" d="M514.93,251.49h-1.87a13.5,13.5,0,0,0-3.95-3.31l-72.92-42.1c-8.62-5-23.7-4.36-33.66,1.39L335.1,246.4a20,20,0,0,0-6,5.09h-2.22v5.82h.06c.28,2.89,2.17,5.62,5.77,7.7l72.92,42.1c8.62,5,23.7,4.35,33.66-1.4l67.43-38.93c4.73-2.73,7.43-6.13,8.07-9.47h.17Z" transform="translate(-201.53 -110.23)"/><path class="cls-41" d="M405.6,302.68l-72.92-42.1c-8.63-5-7.55-13.68,2.42-19.44l67.43-38.93c10-5.75,25-6.38,33.66-1.39l72.92,42.09c8.63,5,7.55,13.69-2.42,19.44l-67.43,38.93C429.3,307,414.22,307.66,405.6,302.68Z" transform="translate(-201.53 -110.23)"/><path class="cls-42" d="M512.58,241.45h-1.83a13,13,0,0,0-3.86-3.24l-71.2-41.11c-8.43-4.87-23.15-4.26-32.88,1.36l-65.85,38a19.47,19.47,0,0,0-5.89,5h-2.16v10.16H329c.27,2.83,2.11,5.49,5.63,7.52l71.2,41.11c8.43,4.87,23.15,4.26,32.88-1.36l65.85-38c4.62-2.66,7.26-6,7.88-9.25h.17Z" transform="translate(-201.53 -110.23)"/><path class="cls-43" d="M514.78,234.69h-1.87a13.68,13.68,0,0,0-3.95-3.32L436,189.28c-8.63-5-23.7-4.36-33.66,1.39L335,229.6a20,20,0,0,0-6,5.09H326.7V246.9h.06c.28,2.9,2.17,5.63,5.77,7.71l72.91,42.09c8.63,5,23.71,4.36,33.67-1.39l67.43-38.93c4.73-2.73,7.43-6.13,8.07-9.48h.17Z" transform="translate(-201.53 -110.23)"/><path class="cls-44" d="M405.44,285.88l-72.91-42.1c-8.63-5-7.55-13.69,2.42-19.44l67.43-38.93c10-5.75,25-6.38,33.66-1.4L509,226.11c8.63,5,7.55,13.69-2.42,19.44l-67.43,38.93C429.15,290.23,414.07,290.86,405.44,285.88Z" transform="translate(-201.53 -110.23)"/><path class="cls-45" d="M408.89,274.39l-56.47-32.6c-6.68-3.86-5.85-10.6,1.87-15.06l52.23-30.15c7.72-4.46,19.39-4.94,26.07-1.08l56.48,32.6c6.68,3.86,5.84,10.6-1.87,15.06L435,273.31C427.25,277.77,415.58,278.25,408.89,274.39Z" transform="translate(-201.53 -110.23)"/><path class="cls-46" d="M506.54,244,439.11,283c-10,5.75-25,6.37-33.67,1.39l-72.91-42.1c-3.46-2-5.34-4.6-5.72-7.36-.54,3.58,1.33,7.08,5.72,9.62l72.91,42.1c8.63,5,23.71,4.36,33.67-1.4l67.43-38.93c6-3.44,8.72-7.94,8.14-12.07C514.17,237.69,511.43,241.22,506.54,244Z" transform="translate(-201.53 -110.23)"/><ellipse class="cls-47" cx="419.46" cy="301.79" rx="23.14" ry="31.4" transform="translate(-232.12 -62.38) rotate(-6.3)"/><g class="cls-48"><polygon class="cls-49" points="218.67 87.44 221.6 85.75 218.69 84.07 215.77 85.76 218.67 87.44"/><polygon class="cls-50" points="213.18 90.61 216.1 88.92 213.2 87.25 210.27 88.93 213.18 90.61"/><polygon class="cls-51" points="207.69 93.78 210.61 92.09 207.71 90.42 204.78 92.1 207.69 93.78"/><polygon class="cls-51" points="202.19 96.95 205.12 95.27 202.21 93.59 199.29 95.28 202.19 96.95"/><polygon class="cls-50" points="196.7 100.12 199.63 98.44 196.72 96.76 193.8 98.45 196.7 100.12"/><polygon class="cls-51" points="191.21 103.3 194.13 101.61 191.23 99.93 188.3 101.62 191.21 103.3"/><polygon class="cls-51" points="185.72 106.47 188.64 104.78 185.74 103.1 182.81 104.79 185.72 106.47"/><polygon class="cls-50" points="180.22 109.64 183.15 107.95 180.24 106.27 177.32 107.96 180.22 109.64"/><polygon class="cls-51" points="174.73 112.81 177.66 111.12 174.75 109.44 171.83 111.13 174.73 112.81"/><polygon class="cls-51" points="169.24 115.98 172.16 114.29 169.26 112.61 166.33 114.3 169.24 115.98"/><polygon class="cls-50" points="163.75 119.15 166.67 117.46 163.76 115.78 160.84 117.47 163.75 119.15"/><polygon class="cls-50" points="158.25 122.32 161.18 120.63 158.27 118.96 155.35 120.64 158.25 122.32"/><polygon class="cls-51" points="152.76 125.49 155.69 123.81 152.78 122.13 149.86 123.82 152.76 125.49"/><polygon class="cls-50" points="223.86 90.44 226.79 88.75 223.88 87.07 220.96 88.76 223.86 90.44"/><polygon class="cls-50" points="218.37 93.61 221.29 91.92 218.39 90.24 215.47 91.93 218.37 93.61"/><polygon class="cls-50" points="212.88 96.78 215.8 95.09 212.9 93.41 209.97 95.1 212.88 96.78"/><polygon class="cls-50" points="207.39 99.95 210.31 98.26 207.4 96.58 204.48 98.27 207.39 99.95"/><polygon class="cls-51" points="201.89 103.12 204.82 101.43 201.91 99.76 198.99 101.44 201.89 103.12"/><polygon class="cls-50" points="196.4 106.29 199.32 104.6 196.42 102.93 193.5 104.61 196.4 106.29"/><polygon class="cls-49" points="190.91 109.46 193.83 107.78 190.93 106.1 188 107.79 190.91 109.46"/><polygon class="cls-51" points="185.41 112.64 188.34 110.95 185.43 109.27 182.51 110.96 185.41 112.64"/><polygon class="cls-50" points="179.92 115.81 182.85 114.12 179.94 112.44 177.02 114.13 179.92 115.81"/><polygon class="cls-51" points="174.43 118.98 177.35 117.29 174.45 115.61 171.53 117.3 174.43 118.98"/><polygon class="cls-50" points="168.94 122.15 171.86 120.46 168.96 118.78 166.03 120.47 168.94 122.15"/><polygon class="cls-50" points="163.44 125.32 166.37 123.63 163.46 121.95 160.54 123.64 163.44 125.32"/><polygon class="cls-50" points="157.95 128.49 160.88 126.8 157.97 125.13 155.05 126.81 157.95 128.49"/><polygon class="cls-51" points="229.06 93.43 231.98 91.75 229.07 90.07 226.15 91.76 229.06 93.43"/><polygon class="cls-50" points="223.56 96.61 226.49 94.92 223.58 93.24 220.66 94.93 223.56 96.61"/><polygon class="cls-49" points="218.07 99.78 220.99 98.09 218.09 96.41 215.16 98.1 218.07 99.78"/><polygon class="cls-49" points="212.58 102.95 215.5 101.26 212.59 99.58 209.67 101.27 212.58 102.95"/><polygon class="cls-49" points="207.08 106.12 210.01 104.43 207.1 102.75 204.18 104.44 207.08 106.12"/><polygon class="cls-50" points="201.59 109.29 204.52 107.6 201.61 105.92 198.69 107.61 201.59 109.29"/><polygon class="cls-49" points="196.1 112.46 199.02 110.77 196.12 109.09 193.19 110.78 196.1 112.46"/><polygon class="cls-49" points="190.61 115.63 193.53 113.94 190.63 112.27 187.7 113.95 190.61 115.63"/><polygon class="cls-49" points="185.11 118.8 188.04 117.11 185.13 115.44 182.21 117.13 185.11 118.8"/><polygon class="cls-49" points="179.62 121.97 182.54 120.29 179.64 118.61 176.72 120.3 179.62 121.97"/><polygon class="cls-50" points="174.13 125.14 177.05 123.46 174.15 121.78 171.22 123.47 174.13 125.14"/><polygon class="cls-50" points="168.64 128.32 171.56 126.63 168.66 124.95 165.73 126.64 168.64 128.32"/><polygon class="cls-51" points="163.14 131.49 166.07 129.8 163.16 128.12 160.24 129.81 163.14 131.49"/><polygon class="cls-50" points="234.25 96.43 237.17 94.74 234.26 93.06 231.34 94.75 234.25 96.43"/><polygon class="cls-49" points="228.75 99.6 231.68 97.91 228.77 96.24 225.85 97.92 228.75 99.6"/><polygon class="cls-52" points="223.26 102.77 226.19 101.08 223.28 99.41 220.35 101.1 223.26 102.77"/><polygon class="cls-53" points="217.77 105.94 220.69 104.26 217.79 102.58 214.86 104.27 217.77 105.94"/><polygon class="cls-49" points="212.28 109.12 215.2 107.43 212.29 105.75 209.37 107.44 212.28 109.12"/><polygon class="cls-49" points="206.78 112.29 209.71 110.6 206.8 108.92 203.88 110.61 206.78 112.29"/><polygon class="cls-54" points="201.29 115.46 204.21 113.77 201.31 112.09 198.38 113.78 201.29 115.46"/><polygon class="cls-53" points="195.8 118.63 198.72 116.94 195.82 115.26 192.89 116.95 195.8 118.63"/><polygon class="cls-52" points="190.31 121.8 193.23 120.11 190.32 118.44 187.4 120.12 190.31 121.8"/><polygon class="cls-54" points="184.81 124.97 187.74 123.28 184.83 121.61 181.91 123.29 184.81 124.97"/><polygon class="cls-49" points="179.32 128.14 182.24 126.45 179.34 124.78 176.41 126.47 179.32 128.14"/><polygon class="cls-51" points="173.83 131.31 176.75 129.63 173.85 127.95 170.92 129.64 173.83 131.31"/><polygon class="cls-51" points="168.34 134.49 171.26 132.8 168.35 131.12 165.43 132.81 168.34 134.49"/><polygon class="cls-51" points="239.44 99.43 242.36 97.74 239.46 96.06 236.53 97.75 239.44 99.43"/><polygon class="cls-49" points="233.94 102.6 236.87 100.91 233.96 99.23 231.04 100.92 233.94 102.6"/><polygon class="cls-53" points="228.45 105.77 231.38 104.08 228.47 102.41 225.55 104.09 228.45 105.77"/><polygon class="cls-53" points="222.96 108.94 225.88 107.25 222.98 105.58 220.05 107.26 222.96 108.94"/><polygon class="cls-54" points="217.47 112.11 220.39 110.42 217.49 108.75 214.56 110.44 217.47 112.11"/><polygon class="cls-49" points="211.97 115.28 214.9 113.6 211.99 111.92 209.07 113.61 211.97 115.28"/><polygon class="cls-54" points="206.48 118.45 209.41 116.77 206.5 115.09 203.58 116.78 206.48 118.45"/><polygon class="cls-53" points="200.99 121.63 203.91 119.94 201.01 118.26 198.08 119.95 200.99 121.63"/><polygon class="cls-53" points="195.5 124.8 198.42 123.11 195.51 121.43 192.59 123.12 195.5 124.8"/><polygon class="cls-54" points="190 127.97 192.93 126.28 190.02 124.6 187.1 126.29 190 127.97"/><polygon class="cls-50" points="184.51 131.14 187.44 129.45 184.53 127.77 181.61 129.46 184.51 131.14"/><polygon class="cls-49" points="179.02 134.31 181.94 132.62 179.04 130.94 176.11 132.63 179.02 134.31"/><polygon class="cls-50" points="173.53 137.48 176.45 135.79 173.54 134.12 170.62 135.8 173.53 137.48"/><polygon class="cls-50" points="244.63 102.43 247.55 100.74 244.65 99.06 241.72 100.75 244.63 102.43"/><polygon class="cls-49" points="239.14 105.6 242.06 103.91 239.15 102.23 236.23 103.92 239.14 105.6"/><polygon class="cls-53" points="233.64 108.77 236.57 107.08 233.66 105.4 230.74 107.09 233.64 108.77"/><polygon class="cls-52" points="228.15 111.94 231.07 110.25 228.17 108.57 225.25 110.26 228.15 111.94"/><polygon class="cls-54" points="222.66 115.11 225.58 113.42 222.68 111.74 219.75 113.43 222.66 115.11"/><polygon class="cls-54" points="217.17 118.28 220.09 116.59 217.18 114.92 214.26 116.6 217.17 118.28"/><polygon class="cls-52" points="211.67 121.45 214.6 119.76 211.69 118.09 208.77 119.78 211.67 121.45"/><polygon class="cls-53" points="206.18 124.62 209.1 122.94 206.2 121.26 203.28 122.95 206.18 124.62"/><polygon class="cls-53" points="200.69 127.8 203.61 126.11 200.71 124.43 197.78 126.12 200.69 127.8"/><polygon class="cls-52" points="195.19 130.97 198.12 129.28 195.21 127.6 192.29 129.29 195.19 130.97"/><polygon class="cls-54" points="189.7 134.14 192.63 132.45 189.72 130.77 186.8 132.46 189.7 134.14"/><polygon class="cls-49" points="184.21 137.31 187.13 135.62 184.23 133.94 181.3 135.63 184.21 137.31"/><polygon class="cls-50" points="178.72 140.48 181.64 138.79 178.74 137.11 175.81 138.8 178.72 140.48"/><polygon class="cls-51" points="249.82 105.42 252.74 103.73 249.84 102.06 246.91 103.75 249.82 105.42"/><polygon class="cls-49" points="244.33 108.59 247.25 106.91 244.34 105.23 241.42 106.92 244.33 108.59"/><polygon class="cls-53" points="238.84 111.77 241.76 110.08 238.85 108.4 235.93 110.09 238.84 111.77"/><polygon class="cls-53" points="233.34 114.94 236.27 113.25 233.36 111.57 230.44 113.26 233.34 114.94"/><polygon class="cls-54" points="227.85 118.11 230.77 116.42 227.87 114.74 224.94 116.43 227.85 118.11"/><polygon class="cls-54" points="222.36 121.28 225.28 119.59 222.38 117.91 219.45 119.6 222.36 121.28"/><polygon class="cls-53" points="216.86 124.45 219.79 122.76 216.88 121.08 213.96 122.77 216.86 124.45"/><polygon class="cls-54" points="211.37 127.62 214.3 125.93 211.39 124.25 208.47 125.94 211.37 127.62"/><polygon class="cls-54" points="205.88 130.79 208.8 129.1 205.9 127.43 202.97 129.11 205.88 130.79"/><polygon class="cls-53" points="200.39 133.96 203.31 132.28 200.41 130.6 197.48 132.28 200.39 133.96"/><polygon class="cls-54" points="194.89 137.13 197.82 135.45 194.91 133.77 191.99 135.46 194.89 137.13"/><polygon class="cls-51" points="189.4 140.31 192.32 138.62 189.42 136.94 186.5 138.63 189.4 140.31"/><polygon class="cls-50" points="183.91 143.48 186.83 141.79 183.93 140.11 181 141.8 183.91 143.48"/><polygon class="cls-51" points="255.01 108.42 257.94 106.73 255.03 105.05 252.1 106.74 255.01 108.42"/><polygon class="cls-49" points="249.52 111.59 252.44 109.9 249.54 108.22 246.61 109.91 249.52 111.59"/><polygon class="cls-52" points="244.03 114.76 246.95 113.07 244.04 111.4 241.12 113.08 244.03 114.76"/><polygon class="cls-53" points="238.53 117.93 241.46 116.25 238.55 114.57 235.63 116.26 238.53 117.93"/><polygon class="cls-54" points="233.04 121.1 235.97 119.42 233.06 117.74 230.13 119.43 233.04 121.1"/><polygon class="cls-54" points="227.55 124.28 230.47 122.59 227.57 120.91 224.64 122.6 227.55 124.28"/><polygon class="cls-53" points="222.06 127.45 224.98 125.76 222.07 124.08 219.15 125.77 222.06 127.45"/><polygon class="cls-53" points="216.56 130.62 219.49 128.93 216.58 127.25 213.66 128.94 216.56 130.62"/><polygon class="cls-53" points="211.07 133.79 213.99 132.1 211.09 130.42 208.16 132.11 211.07 133.79"/><polygon class="cls-53" points="205.58 136.96 208.5 135.27 205.6 133.59 202.67 135.28 205.58 136.96"/><polygon class="cls-54" points="200.09 140.13 203.01 138.44 200.1 136.77 197.18 138.45 200.09 140.13"/><polygon class="cls-50" points="194.59 143.3 197.52 141.61 194.61 139.94 191.69 141.63 194.59 143.3"/><polygon class="cls-51" points="189.1 146.47 192.02 144.78 189.12 143.11 186.19 144.8 189.1 146.47"/><polygon class="cls-50" points="260.2 111.42 263.13 109.73 260.22 108.05 257.3 109.74 260.2 111.42"/><polygon class="cls-49" points="254.71 114.59 257.63 112.9 254.73 111.22 251.8 112.91 254.71 114.59"/><polygon class="cls-53" points="249.22 117.76 252.14 116.07 249.24 114.39 246.31 116.08 249.22 117.76"/><polygon class="cls-52" points="243.72 120.93 246.65 119.24 243.74 117.56 240.82 119.25 243.72 120.93"/><polygon class="cls-54" points="238.23 124.1 241.16 122.41 238.25 120.74 235.33 122.42 238.23 124.1"/><polygon class="cls-52" points="232.74 127.27 235.66 125.58 232.76 123.91 229.83 125.59 232.74 127.27"/><polygon class="cls-53" points="227.25 130.44 230.17 128.76 227.26 127.08 224.34 128.77 227.25 130.44"/><polygon class="cls-53" points="221.75 133.62 224.68 131.93 221.77 130.25 218.85 131.94 221.75 133.62"/><polygon class="cls-53" points="216.26 136.79 219.19 135.1 216.28 133.42 213.36 135.11 216.26 136.79"/><polygon class="cls-53" points="210.77 139.96 213.69 138.27 210.79 136.59 207.86 138.28 210.77 139.96"/><polygon class="cls-52" points="205.28 143.13 208.2 141.44 205.29 139.76 202.37 141.45 205.28 143.13"/><polygon class="cls-49" points="199.78 146.3 202.71 144.61 199.8 142.93 196.88 144.62 199.78 146.3"/><polygon class="cls-51" points="194.29 149.47 197.22 147.78 194.31 146.1 191.39 147.79 194.29 149.47"/><polygon class="cls-50" points="265.39 114.41 268.32 112.73 265.41 111.05 262.49 112.74 265.39 114.41"/><polygon class="cls-49" points="259.9 117.58 262.82 115.9 259.92 114.22 257 115.91 259.9 117.58"/><polygon class="cls-53" points="254.41 120.76 257.33 119.07 254.43 117.39 251.5 119.08 254.41 120.76"/><polygon class="cls-53" points="248.92 123.93 251.84 122.24 248.93 120.56 246.01 122.25 248.92 123.93"/><polygon class="cls-54" points="243.42 127.1 246.35 125.41 243.44 123.73 240.52 125.42 243.42 127.1"/><polygon class="cls-52" points="237.93 130.27 240.85 128.58 237.95 126.9 235.03 128.59 237.93 130.27"/><polygon class="cls-53" points="232.44 133.44 235.36 131.75 232.46 130.07 229.53 131.76 232.44 133.44"/><polygon class="cls-54" points="226.94 136.61 229.87 134.92 226.96 133.25 224.04 134.94 226.94 136.61"/><polygon class="cls-54" points="221.45 139.78 224.38 138.09 221.47 136.42 218.55 138.11 221.45 139.78"/><polygon class="cls-53" points="215.96 142.95 218.88 141.27 215.98 139.59 213.06 141.28 215.96 142.95"/><polygon class="cls-53" points="210.47 146.13 213.39 144.44 210.49 142.76 207.56 144.45 210.47 146.13"/><polygon class="cls-50" points="204.97 149.3 207.9 147.61 204.99 145.93 202.07 147.62 204.97 149.3"/><polygon class="cls-51" points="199.48 152.47 202.41 150.78 199.5 149.1 196.58 150.79 199.48 152.47"/><polygon class="cls-51" points="270.58 117.41 273.51 115.72 270.6 114.05 267.68 115.73 270.58 117.41"/><polygon class="cls-49" points="265.09 120.58 268.02 118.89 265.11 117.22 262.19 118.91 265.09 120.58"/><polygon class="cls-55" points="259.6 123.75 262.52 122.07 259.62 120.39 256.69 122.08 259.6 123.75"/><polygon class="cls-53" points="254.11 126.92 257.03 125.24 254.13 123.56 251.2 125.25 254.11 126.92"/><polygon class="cls-54" points="248.61 130.1 251.54 128.41 248.63 126.73 245.71 128.42 248.61 130.1"/><polygon class="cls-53" points="243.12 133.27 246.05 131.58 243.14 129.9 240.22 131.59 243.12 133.27"/><polygon class="cls-53" points="237.63 136.44 240.55 134.75 237.65 133.07 234.72 134.76 237.63 136.44"/><polygon class="cls-54" points="232.14 139.61 235.06 137.92 232.16 136.24 229.23 137.93 232.14 139.61"/><polygon class="cls-54" points="226.64 142.78 229.57 141.09 226.66 139.41 223.74 141.1 226.64 142.78"/><polygon class="cls-52" points="221.15 145.95 224.07 144.26 221.17 142.59 218.25 144.27 221.15 145.95"/><polygon class="cls-53" points="215.66 149.12 218.58 147.44 215.68 145.76 212.75 147.44 215.66 149.12"/><polygon class="cls-49" points="210.17 152.29 213.09 150.61 210.19 148.93 207.26 150.62 210.17 152.29"/><polygon class="cls-51" points="204.67 155.47 207.6 153.78 204.69 152.1 201.77 153.79 204.67 155.47"/><polygon class="cls-51" points="275.78 120.41 278.7 118.72 275.79 117.04 272.87 118.73 275.78 120.41"/><polygon class="cls-50" points="270.28 123.58 273.21 121.89 270.3 120.21 267.38 121.9 270.28 123.58"/><polygon class="cls-49" points="264.79 126.75 267.71 125.06 264.81 123.39 261.88 125.07 264.79 126.75"/><polygon class="cls-49" points="259.3 129.92 262.22 128.23 259.32 126.56 256.39 128.24 259.3 129.92"/><polygon class="cls-49" points="253.81 133.09 256.73 131.41 253.82 129.73 250.9 131.42 253.81 133.09"/><polygon class="cls-49" points="248.31 136.26 251.24 134.58 248.33 132.9 245.41 134.59 248.31 136.26"/><polygon class="cls-49" points="242.82 139.44 245.74 137.75 242.84 136.07 239.91 137.76 242.82 139.44"/><polygon class="cls-49" points="237.33 142.61 240.25 140.92 237.35 139.24 234.42 140.93 237.33 142.61"/><polygon class="cls-49" points="231.84 145.78 234.76 144.09 231.85 142.41 228.93 144.1 231.84 145.78"/><polygon class="cls-54" points="226.34 148.95 229.27 147.26 226.36 145.58 223.44 147.27 226.34 148.95"/><polygon class="cls-49" points="220.85 152.12 223.77 150.43 220.87 148.75 217.94 150.44 220.85 152.12"/><polygon class="cls-50" points="215.36 155.29 218.28 153.6 215.38 151.93 212.45 153.61 215.36 155.29"/><polygon class="cls-50" points="209.87 158.46 212.79 156.77 209.88 155.1 206.96 156.78 209.87 158.46"/><polygon class="cls-49" points="280.97 123.41 283.89 121.72 280.99 120.04 278.06 121.73 280.97 123.41"/><polygon class="cls-51" points="275.48 126.58 278.4 124.89 275.49 123.21 272.57 124.9 275.48 126.58"/><polygon class="cls-51" points="269.98 129.75 272.91 128.06 270 126.38 267.08 128.07 269.98 129.75"/><polygon class="cls-50" points="264.49 132.92 267.41 131.23 264.51 129.55 261.58 131.24 264.49 132.92"/><polygon class="cls-50" points="259 136.09 261.92 134.4 259.01 132.72 256.09 134.41 259 136.09"/><polygon class="cls-51" points="253.5 139.26 256.43 137.57 253.52 135.9 250.6 137.58 253.5 139.26"/><polygon class="cls-51" points="248.01 142.43 250.94 140.74 248.03 139.07 245.11 140.75 248.01 142.43"/><polygon class="cls-51" points="242.52 145.6 245.44 143.92 242.54 142.24 239.61 143.93 242.52 145.6"/><polygon class="cls-51" points="237.03 148.78 239.95 147.09 237.04 145.41 234.12 147.1 237.03 148.78"/><polygon class="cls-50" points="231.53 151.95 234.46 150.26 231.55 148.58 228.63 150.27 231.53 151.95"/><polygon class="cls-51" points="226.04 155.12 228.97 153.43 226.06 151.75 223.14 153.44 226.04 155.12"/><polygon class="cls-50" points="220.55 158.29 223.47 156.6 220.57 154.92 217.64 156.61 220.55 158.29"/><polygon class="cls-50" points="215.06 161.46 217.98 159.77 215.07 158.09 212.15 159.78 215.06 161.46"/><polygon class="cls-49" points="286.16 126.4 289.08 124.72 286.18 123.04 283.25 124.72 286.16 126.4"/><polygon class="cls-51" points="280.67 129.57 283.59 127.89 280.68 126.21 277.76 127.9 280.67 129.57"/><polygon class="cls-50" points="275.17 132.75 278.1 131.06 275.19 129.38 272.27 131.07 275.17 132.75"/><polygon class="cls-50" points="269.68 135.92 272.61 134.23 269.7 132.55 266.77 134.24 269.68 135.92"/><polygon class="cls-51" points="264.19 139.09 267.11 137.4 264.21 135.72 261.28 137.41 264.19 139.09"/><polygon class="cls-51" points="258.7 142.26 261.62 140.57 258.71 138.89 255.79 140.58 258.7 142.26"/><polygon class="cls-51" points="253.2 145.43 256.13 143.74 253.22 142.06 250.3 143.75 253.2 145.43"/><polygon class="cls-50" points="247.71 148.6 250.63 146.91 247.73 145.24 244.81 146.92 247.71 148.6"/><polygon class="cls-50" points="242.22 151.77 245.14 150.08 242.24 148.41 239.31 150.09 242.22 151.77"/><polygon class="cls-50" points="236.72 154.94 239.65 153.25 236.74 151.58 233.82 153.26 236.72 154.94"/><polygon class="cls-51" points="231.23 158.11 234.16 156.43 231.25 154.75 228.33 156.44 231.23 158.11"/><polygon class="cls-50" points="225.74 161.28 228.66 159.6 225.76 157.92 222.84 159.61 225.74 161.28"/><polygon class="cls-49" points="220.25 164.46 223.17 162.77 220.27 161.09 217.34 162.78 220.25 164.46"/></g><path class="cls-56" d="M502.34,260.19l5.44-3.2,8.76,5.3a1.73,1.73,0,0,1,.79,1.87l-1.06,9.55L513,267a8.56,8.56,0,0,0-2.33-2Z" transform="translate(-201.53 -110.23)"/><path class="cls-57" d="M513.39,266.46a8.39,8.39,0,0,0-2.33-2l-8-4.68-.69.4,8.3,4.84a8.56,8.56,0,0,1,2.33,2l3.3,6.69,0-.18Z" transform="translate(-201.53 -110.23)"/><path class="cls-58" d="M491.89,266.23l5.44-3.2,8.76,5.3a1.73,1.73,0,0,1,.79,1.87l-1.06,9.55-3.3-6.69a8.59,8.59,0,0,0-2.33-2Z" transform="translate(-201.53 -110.23)"/><path class="cls-59" d="M502.94,272.5a8.7,8.7,0,0,0-2.32-2l-8-4.67-.7.4,8.3,4.83a8.59,8.59,0,0,1,2.33,2l3.3,6.69,0-.19Z" transform="translate(-201.53 -110.23)"/><path class="cls-60" d="M481.44,272.27l5.44-3.2,8.76,5.29a1.74,1.74,0,0,1,.79,1.88l-1.06,9.55-3.3-6.7a8.69,8.69,0,0,0-2.32-2Z" transform="translate(-201.53 -110.23)"/><path class="cls-61" d="M492.49,278.53a8.51,8.51,0,0,0-2.32-2l-8-4.68-.7.41,8.31,4.83a8.69,8.69,0,0,1,2.32,2l3.3,6.7,0-.19Z" transform="translate(-201.53 -110.23)"/><path class="cls-62" d="M471,278.3l5.43-3.2,8.76,5.3a1.73,1.73,0,0,1,.79,1.87l-1.06,9.55-3.3-6.69a8.51,8.51,0,0,0-2.32-2Z" transform="translate(-201.53 -110.23)"/><path class="cls-63" d="M482,284.57a8.37,8.37,0,0,0-2.32-2l-8-4.68-.69.4,8.3,4.84a8.51,8.51,0,0,1,2.32,2l3.3,6.69,0-.18Z" transform="translate(-201.53 -110.23)"/><path class="cls-64" d="M460.55,284.34l5.43-3.2,8.76,5.3a1.73,1.73,0,0,1,.79,1.87l-1.06,9.55-3.3-6.69a8.21,8.21,0,0,0-2.32-2Z" transform="translate(-201.53 -110.23)"/><path class="cls-65" d="M471.6,290.61a8.59,8.59,0,0,0-2.33-2l-8-4.67-.69.4,8.3,4.84a8.21,8.21,0,0,1,2.32,2l3.3,6.69,0-.18Z" transform="translate(-201.53 -110.23)"/><path class="cls-66" d="M450.1,290.38l5.43-3.2,8.77,5.3a1.74,1.74,0,0,1,.79,1.87L464,303.9l-3.29-6.69a8.59,8.59,0,0,0-2.33-2Z" transform="translate(-201.53 -110.23)"/><path class="cls-67" d="M461.15,296.64a8.56,8.56,0,0,0-2.33-2l-8-4.68-.69.41,8.3,4.83a8.59,8.59,0,0,1,2.33,2L464,303.9l.05-.19Z" transform="translate(-201.53 -110.23)"/><path class="cls-68" d="M439.6,296.42l5.44-3.2,8.76,5.29a1.74,1.74,0,0,1,.79,1.88l-1.06,9.54-3.3-6.69a8.56,8.56,0,0,0-2.33-2Z" transform="translate(-201.53 -110.23)"/><path class="cls-69" d="M450.65,302.68a8.66,8.66,0,0,0-2.32-2l-8-4.68-.7.41,8.3,4.83a8.56,8.56,0,0,1,2.33,2l3.3,6.69,0-.18Z" transform="translate(-201.53 -110.23)"/><path class="cls-70" d="M429.15,302.45l5.44-3.2,8.76,5.3a1.73,1.73,0,0,1,.79,1.87L443.08,316l-3.3-6.69a8.66,8.66,0,0,0-2.32-2Z" transform="translate(-201.53 -110.23)"/><path class="cls-71" d="M440.2,308.72a8.34,8.34,0,0,0-2.32-2l-8-4.68-.7.4,8.31,4.84a8.66,8.66,0,0,1,2.32,2l3.3,6.69,0-.18Z" transform="translate(-201.53 -110.23)"/><path class="cls-72" d="M339.51,260.19l-5.44-3.2-8.75,5.3a1.73,1.73,0,0,0-.79,1.87l1.06,9.55,3.29-6.69a8.59,8.59,0,0,1,2.33-2Z" transform="translate(-201.53 -110.23)"/><path class="cls-73" d="M328.46,266.46a8.59,8.59,0,0,1,2.33-2l8-4.67.7.4-8.3,4.83a8.59,8.59,0,0,0-2.33,2l-3.29,6.69,0-.19Z" transform="translate(-201.53 -110.23)"/><path class="cls-74" d="M350,266.23l-5.43-3.2-8.76,5.29a1.73,1.73,0,0,0-.79,1.87l1.06,9.55,3.3-6.69a8.51,8.51,0,0,1,2.32-2Z" transform="translate(-201.53 -110.23)"/><path class="cls-75" d="M338.91,272.49a8.37,8.37,0,0,1,2.32-2l8-4.68.69.41-8.3,4.83a8.51,8.51,0,0,0-2.32,2l-3.3,6.69,0-.18Z" transform="translate(-201.53 -110.23)"/><path class="cls-76" d="M360.4,272.26l-5.44-3.2-8.76,5.3a1.74,1.74,0,0,0-.79,1.87l1.07,9.55,3.29-6.69a8.39,8.39,0,0,1,2.33-2Z" transform="translate(-201.53 -110.23)"/><path class="cls-77" d="M349.35,278.53a8.59,8.59,0,0,1,2.33-2l8-4.67.7.4-8.3,4.84a8.39,8.39,0,0,0-2.33,2l-3.29,6.69-.05-.19Z" transform="translate(-201.53 -110.23)"/><path class="cls-78" d="M370.84,278.3l-5.43-3.2-8.76,5.29a1.74,1.74,0,0,0-.79,1.88l1.06,9.54,3.3-6.69a8.51,8.51,0,0,1,2.32-2Z" transform="translate(-201.53 -110.23)"/><path class="cls-79" d="M359.8,284.56a8.37,8.37,0,0,1,2.32-2l8-4.68.69.41-8.3,4.83a8.51,8.51,0,0,0-2.32,2l-3.3,6.69,0-.18Z" transform="translate(-201.53 -110.23)"/><path class="cls-80" d="M381.29,284.33l-5.44-3.2-8.76,5.3a1.74,1.74,0,0,0-.79,1.87l1.07,9.55,3.29-6.69a8.39,8.39,0,0,1,2.33-2Z" transform="translate(-201.53 -110.23)"/><path class="cls-81" d="M370.24,290.6a8.59,8.59,0,0,1,2.33-2l8-4.67.7.4-8.3,4.84a8.39,8.39,0,0,0-2.33,2l-3.29,6.69-.05-.19Z" transform="translate(-201.53 -110.23)"/><path class="cls-82" d="M391.73,290.37l-5.43-3.2-8.76,5.3a1.72,1.72,0,0,0-.79,1.87l1.06,9.54,3.3-6.69a8.37,8.37,0,0,1,2.32-2Z" transform="translate(-201.53 -110.23)"/><path class="cls-83" d="M380.69,296.63a8.37,8.37,0,0,1,2.32-2l8-4.68.69.41-8.3,4.83a8.37,8.37,0,0,0-2.32,2l-3.3,6.69,0-.18Z" transform="translate(-201.53 -110.23)"/><path class="cls-84" d="M402.1,296.4l-5.43-3.2-8.76,5.3a1.73,1.73,0,0,0-.79,1.87l1.06,9.55,3.3-6.69a8.34,8.34,0,0,1,2.32-2Z" transform="translate(-201.53 -110.23)"/><path class="cls-85" d="M391.06,302.67a8.4,8.4,0,0,1,2.32-2l8-4.67.69.4-8.3,4.84a8.34,8.34,0,0,0-2.32,2l-3.3,6.69,0-.19Z" transform="translate(-201.53 -110.23)"/><path class="cls-86" d="M412.55,302.44l-5.44-3.2-8.76,5.3a1.74,1.74,0,0,0-.79,1.87l1.07,9.54,3.29-6.69a8.56,8.56,0,0,1,2.33-2Z" transform="translate(-201.53 -110.23)"/><path class="cls-87" d="M401.5,308.7a8.56,8.56,0,0,1,2.33-2l8-4.68.7.41-8.3,4.83a8.56,8.56,0,0,0-2.33,2L398.63,316l-.05-.18Z" transform="translate(-201.53 -110.23)"/><circle class="cls-88" cx="300.39" cy="203.17" r="5.43"/><circle class="cls-89" cx="343.39" cy="175.17" r="5.43"/><circle class="cls-90" cx="226.05" cy="220.51" r="5.43"/><circle class="cls-91" cx="165.05" cy="200.17" r="5.43"/><circle class="cls-92" cx="108.39" cy="220.17" r="5.43"/><path class="cls-93" d="M297.68,275.74a5.43,5.43,0,1,1-5.43-5.43A5.43,5.43,0,0,1,297.68,275.74Z" transform="translate(-201.53 -110.23)"/><circle class="cls-94" cx="355.39" cy="95.84" r="5.43"/><circle class="cls-95" cx="81.39" cy="91.84" r="5.43"/><circle class="cls-96" cx="273.89" cy="264.84" r="5.43"/><circle class="cls-97" cx="26.39" cy="180.34" r="5.43"/></g></g></svg>