<svg id="OBJECTS" xmlns="http://www.w3.org/2000/svg" viewBox="0 0 400.11 327.05"><defs><style>.cls-1{fill:#e5f1ff;}.cls-2{fill:#a9ccea;}.cls-3{fill:#0f3157;}.cls-4{fill:#ff4d6b;}.cls-12,.cls-15,.cls-16,.cls-17,.cls-19,.cls-24,.cls-26,.cls-29,.cls-5{fill:none;}.cls-26,.cls-5{stroke:#ff4d6b;}.cls-15,.cls-29,.cls-5{stroke-linecap:round;stroke-linejoin:round;}.cls-12,.cls-13,.cls-24,.cls-26,.cls-29,.cls-5{stroke-width:1.13px;}.cls-5{stroke-dasharray:0 5.64;}.cls-13,.cls-14,.cls-6{fill:#289df2;}.cls-7{fill:#0f3775;}.cls-8{fill:#284d89;}.cls-9{fill:#2889db;}.cls-10{fill:#fff;}.cls-11{fill:#282e5c;}.cls-12,.cls-13,.cls-14{stroke:#fff;}.cls-12,.cls-13,.cls-14,.cls-16,.cls-17,.cls-19,.cls-24,.cls-26{stroke-miterlimit:10;}.cls-14{stroke-width:0.56px;}.cls-15{stroke:#284d89;stroke-width:2.26px;}.cls-16{stroke:#ff5c66;stroke-width:1.02px;}.cls-17,.cls-19{stroke:#f7f7f7;}.cls-17{stroke-width:0.25px;}.cls-18,.cls-20,.cls-23{fill:#f7f7f7;}.cls-19{stroke-width:0.51px;}.cls-20,.cls-23{font-size:8.12px;letter-spacing:0.06em;}.cls-20{font-family:BebasNeueRegular;}.cls-21{letter-spacing:0.05em;}.cls-22{fill:#28385e;}.cls-23{font-family:BebasNeueBook;}.cls-24,.cls-29{stroke:#289df2;}.cls-25{fill:#f9fbfc;}.cls-27{fill:#1ae5ff;}.cls-28{fill:#287dd1;}</style></defs><circle class="cls-1" cx="314.29" cy="85.82" r="85.82"/><circle class="cls-1" cx="145" cy="350.99" r="50.16" transform="translate(-257.54 121.08) rotate(-45)"/><path class="cls-2" d="M144.33,112.86a45.86,45.86,0,1,0,45.86,45.86A45.86,45.86,0,0,0,144.33,112.86Zm0,75.17a29.32,29.32,0,1,1,29.32-29.31A29.32,29.32,0,0,1,144.33,188Z" transform="translate(-51.83 -84.25)"/><path class="cls-3" d="M317.58,406a5.26,5.26,0,0,1-5.27,5.26h-133a5.26,5.26,0,1,1,0-10.52h47.23l6.52-12h25.55l6.52,12h47.23A5.26,5.26,0,0,1,317.58,406Z" transform="translate(-51.83 -84.25)"/><rect class="cls-4" x="181.96" y="293.6" width="21.8" height="6.39"/><rect class="cls-4" x="181.96" y="283.08" width="21.8" height="6.39"/><path class="cls-5" d="M418.26,345.7A34,34,0,1,1,437.08,328" transform="translate(-51.83 -84.25)"/><path class="cls-6" d="M322,153.81h-5.44A44.72,44.72,0,0,0,311,140.34l3.85-3.85a4.25,4.25,0,0,0,0-6l-8.55-8.55a4.27,4.27,0,0,0-6,0l-3.84,3.85A44.78,44.78,0,0,0,283,120.2v-5.44a4.24,4.24,0,0,0-4.24-4.25h-12.1a4.24,4.24,0,0,0-4.24,4.25v5.44a44.78,44.78,0,0,0-13.48,5.58l-3.84-3.85a4.27,4.27,0,0,0-6,0l-8.55,8.55a4.25,4.25,0,0,0,0,6l3.85,3.85a44.72,44.72,0,0,0-5.58,13.47h-5.44a4.25,4.25,0,0,0-4.25,4.25v12.09a4.25,4.25,0,0,0,4.25,4.25h5.44a44.83,44.83,0,0,0,5.58,13.47l-3.85,3.85a4.24,4.24,0,0,0,0,6l8.55,8.55a4.25,4.25,0,0,0,6,0l3.84-3.84A45,45,0,0,0,262.37,208v5.44a4.25,4.25,0,0,0,4.24,4.25h12.1a4.25,4.25,0,0,0,4.24-4.25V208a45,45,0,0,0,13.48-5.58l3.84,3.84a4.25,4.25,0,0,0,6,0l8.55-8.55a4.24,4.24,0,0,0,0-6L311,187.87a44.83,44.83,0,0,0,5.58-13.47H322a4.25,4.25,0,0,0,4.25-4.25V158.06A4.25,4.25,0,0,0,322,153.81Zm-49.34,31.86a21.57,21.57,0,1,1,21.57-21.57A21.57,21.57,0,0,1,272.66,185.67Z" transform="translate(-51.83 -84.25)"/><rect class="cls-7" x="144.59" y="102.01" width="202.4" height="322.48" rx="11.47" transform="translate(457.21 -66.78) rotate(90)"/><rect class="cls-8" x="56.23" y="102.85" width="33.26" height="7.33"/><rect class="cls-8" x="96.26" y="102.85" width="33.26" height="7.33"/><rect class="cls-8" x="197.75" y="102.85" width="33.26" height="7.33"/><rect class="cls-8" x="299.23" y="102.85" width="33.26" height="7.33"/><rect class="cls-4" x="134.04" y="102.85" width="59.48" height="7.33"/><rect class="cls-9" x="234.96" y="102.85" width="59.48" height="7.33"/><rect class="cls-9" x="56.42" y="97.02" width="5.83" height="3.57"/><rect class="cls-10" x="56.42" y="116.19" width="60.8" height="3.57"/><rect class="cls-10" x="56.42" y="122.48" width="18.04" height="3.57"/><rect class="cls-8" x="56.79" y="137.24" width="71.6" height="117.27" rx="7.61"/><rect class="cls-10" x="65.82" y="154.43" width="23.96" height="3.66"/><rect class="cls-10" x="65.82" y="162.61" width="23.96" height="3.66"/><rect class="cls-10" x="65.82" y="170.78" width="23.96" height="3.66"/><rect class="cls-10" x="65.82" y="204.89" width="14.66" height="3.66"/><rect class="cls-10" x="65.82" y="213.07" width="14.66" height="3.66"/><rect class="cls-10" x="91" y="213.07" width="14.66" height="3.66"/><rect class="cls-10" x="65.82" y="195.59" width="9.21" height="3.66"/><rect class="cls-10" x="105.28" y="195.59" width="4.89" height="3.66"/><rect class="cls-4" x="78.22" y="195.59" width="25.18" height="3.66"/><rect class="cls-9" x="65.82" y="181.78" width="3.52" height="3.66"/><rect class="cls-4" x="65.82" y="188.26" width="3.52" height="3.66"/><polygon class="cls-10" points="85.36 217.49 84.05 217.49 87.19 212.79 88.51 212.79 85.36 217.49"/><rect class="cls-11" x="65.82" y="223.78" width="54.41" height="3.1"/><rect class="cls-11" x="65.82" y="230.83" width="54.41" height="3.1"/><rect class="cls-6" x="225.56" y="131.6" width="163.13" height="54.13" rx="6.77"/><path class="cls-12" d="M325.88,250.8s8.27-20.29,31.95-15.41S393.53,267,424,245.17" transform="translate(-51.83 -84.25)"/><rect class="cls-13" x="347.34" y="167.68" width="3.38" height="3.38"/><line class="cls-14" x1="278.18" y1="150.21" x2="321.03" y2="150.21"/><line class="cls-14" x1="327.61" y1="170.31" x2="370.46" y2="170.31"/><rect class="cls-13" x="296.23" y="148.51" width="3.38" height="3.38"/><rect class="cls-8" x="216.92" y="141.37" width="42.1" height="58.26" rx="4.89"/><rect class="cls-10" x="223.49" y="149.64" width="23.96" height="3.3"/><rect class="cls-10" x="223.49" y="157.01" width="23.96" height="3.3"/><rect class="cls-10" x="223.49" y="164.38" width="9.02" height="3.3"/><rect class="cls-6" x="223.49" y="172" width="15.6" height="3.3"/><rect class="cls-6" x="223.49" y="179.37" width="10.52" height="3.3"/><rect class="cls-10" x="223.49" y="186.74" width="10.52" height="3.3"/><line class="cls-15" x1="362.38" y1="124.27" x2="379.29" y2="124.27"/><path class="cls-16" d="M376.2,304l-5.84,4.57L362,310.05s-7.87-.51-8.63-.51-6.09-4.31-6.09-4.31l-9.9-3.56-6.85,2.54-8.13-1.77-12.18-.77-11.67,4.57-9.65,1.53-8.63,2.79-9.64.76-10.41-8.12-9.65-1.78L240.67,307l-7.87,2.54-8.93-.25-11.26,6.85h-6.72l-11.33,4" transform="translate(-51.83 -84.25)"/><line class="cls-17" x1="142.9" y1="236.04" x2="324.63" y2="236.04"/><rect class="cls-18" x="141.12" y="233.75" width="1.86" height="4.57"/><rect class="cls-18" x="323.53" y="233.75" width="1.86" height="4.57"/><path class="cls-19" d="M194.73,320.29" transform="translate(-51.83 -84.25)"/><line class="cls-17" x1="324.46" y1="236.04" x2="324.46" y2="220.72"/><path class="cls-18" d="M377.3,304.21a1.44,1.44,0,1,1-1.44-1.44A1.43,1.43,0,0,1,377.3,304.21Z" transform="translate(-51.83 -84.25)"/><text class="cls-20" transform="translate(143.15 246.76)">beta <tspan class="cls-21" x="19.45" y="0">t</tspan><tspan x="22.58" y="0">est</tspan></text><rect class="cls-22" x="184.86" y="242.64" width="113.03" height="2.03"/><rect class="cls-4" x="184.86" y="242.64" width="69.38" height="2.03"/><rect class="cls-22" x="184.86" y="246.53" width="55.58" height="2.03"/><polygon class="cls-4" points="149.63 252.58 156.48 252.58 157.37 250.67 143.53 250.67 143.53 253.85 148.36 253.85 149.63 252.58"/><rect class="cls-18" x="163.07" y="250.65" width="0.76" height="0.76"/><rect class="cls-18" x="167.79" y="250.65" width="0.76" height="0.76"/><rect class="cls-18" x="172.52" y="250.65" width="0.76" height="0.76"/><text class="cls-23" transform="translate(315.57 214.89)">500</text><polygon class="cls-22" points="306.02 248.73 304.32 248.73 301.62 242.64 303.31 242.64 306.02 248.73"/><polygon class="cls-22" points="310.42 248.73 308.72 248.73 306.02 242.64 307.71 242.64 310.42 248.73"/><polygon class="cls-22" points="314.81 248.73 313.12 248.73 310.42 242.64 312.11 242.64 314.81 248.73"/><polygon class="cls-22" points="319.21 248.73 317.52 248.73 314.81 242.64 316.51 242.64 319.21 248.73"/><polygon class="cls-22" points="323.53 248.73 321.84 248.73 319.13 242.64 320.82 242.64 323.53 248.73"/><rect class="cls-2" x="288.67" y="39" width="27.51" height="4.93"/><rect class="cls-2" x="288.67" y="47.82" width="41.48" height="4.93"/><rect class="cls-2" x="288.67" y="56.64" width="51.16" height="4.93"/><rect class="cls-2" x="288.67" y="65.46" width="19.56" height="4.93"/><rect class="cls-9" y="98.39" width="27.51" height="4.93"/><rect class="cls-2" y="107.21" width="41.48" height="4.93"/><rect class="cls-2" y="116.03" width="51.16" height="4.93"/><rect class="cls-2" y="124.84" width="19.56" height="4.93"/><rect class="cls-24" x="68.63" y="271.42" width="117.27" height="15.22"/><rect class="cls-24" x="125.2" y="151.52" width="5.64" height="34.58"/><circle class="cls-4" cx="406.05" cy="313.86" r="19.43" transform="translate(-96.62 -15.59) rotate(-9.16)"/><path class="cls-25" d="M404.64,312l-7.72,2.83,7.72,2.8v2.9l-11-4.2v-3l11-4.19Z" transform="translate(-51.83 -84.25)"/><path class="cls-25" d="M407.16,309.17l11,4.19v3l-11,4.2v-2.9l7.72-2.8L407.16,312Z" transform="translate(-51.83 -84.25)"/><path class="cls-26" d="M438.45,329.74a2.54,2.54,0,1,1-2.54-2.54A2.54,2.54,0,0,1,438.45,329.74Z" transform="translate(-51.83 -84.25)"/><rect class="cls-24" x="62.43" y="61.69" width="91.9" height="9.58"/><rect class="cls-6" x="66.38" y="64.79" width="56.94" height="2.82"/><rect class="cls-8" x="140.61" y="136.49" width="67.28" height="3.38"/><rect class="cls-9" x="140.61" y="136.49" width="30.49" height="3.38"/><rect class="cls-8" x="140.61" y="145.22" width="67.28" height="3.38"/><rect class="cls-4" x="140.61" y="145.22" width="46.84" height="3.38"/><rect class="cls-8" x="140.61" y="153.96" width="67.28" height="3.38"/><rect class="cls-27" x="140.61" y="153.96" width="13.72" height="3.38"/><rect class="cls-8" x="140.9" y="130.57" width="1.32" height="1.32"/><rect class="cls-8" x="145.41" y="130.57" width="1.32" height="1.32"/><rect class="cls-8" x="149.92" y="130.57" width="1.32" height="1.32"/><rect class="cls-10" x="266.09" y="176.64" width="2.19" height="2.19"/><rect class="cls-10" x="273.61" y="176.64" width="2.19" height="2.19"/><rect class="cls-10" x="281.13" y="176.64" width="2.19" height="2.19"/><rect class="cls-10" x="297.74" y="89.51" width="4.11" height="4.11"/><rect class="cls-10" x="311.84" y="89.51" width="4.11" height="4.11"/><rect class="cls-10" x="325.93" y="89.51" width="4.11" height="4.11"/><rect class="cls-10" x="239.48" y="259.41" width="4.11" height="4.11"/><rect class="cls-10" x="253.58" y="259.41" width="4.11" height="4.11"/><rect class="cls-10" x="267.67" y="259.41" width="4.11" height="4.11"/><rect class="cls-10" x="67.01" y="145.57" width="2.19" height="2.19"/><rect class="cls-10" x="74.52" y="145.57" width="2.19" height="2.19"/><rect class="cls-10" x="82.04" y="145.57" width="2.19" height="2.19"/><rect class="cls-10" x="337.95" y="142.88" width="36.46" height="3.57"/><rect class="cls-28" x="337.95" y="149.17" width="10.82" height="3.57"/><polygon class="cls-27" points="43.83 150.21 35.93 150.21 35.93 142.31 28.6 142.31 28.6 150.21 20.71 150.21 20.71 157.53 28.6 157.53 28.6 165.43 35.93 165.43 35.93 157.53 43.83 157.53 43.83 150.21"/><polygon class="cls-9" points="22.7 172.19 17.89 172.19 17.89 167.38 13.42 167.38 13.42 172.19 8.61 172.19 8.61 176.66 13.42 176.66 13.42 181.48 17.89 181.48 17.89 176.66 22.7 176.66 22.7 172.19"/><path class="cls-8" d="M206.27,252.24a12.35,12.35,0,1,0,12.34,12.34A12.35,12.35,0,0,0,206.27,252.24Zm0,18.78a6.44,6.44,0,1,1,6.43-6.44A6.44,6.44,0,0,1,206.27,271Z" transform="translate(-51.83 -84.25)"/><path class="cls-6" d="M197.86,263.37a3,3,0,0,0,2.68-1.71,6.43,6.43,0,0,1,11.46,0,3,3,0,0,0,2.67,1.71h0a3,3,0,0,0,2.69-4.21,12.35,12.35,0,0,0-22.18,0,3,3,0,0,0,2.68,4.21Z" transform="translate(-51.83 -84.25)"/><path class="cls-8" d="M227,264.58a12.35,12.35,0,1,0,12.34-12.34A12.35,12.35,0,0,0,227,264.58Zm18.78,0a6.44,6.44,0,1,1-6.44-6.43A6.44,6.44,0,0,1,245.78,264.58Z" transform="translate(-51.83 -84.25)"/><path class="cls-4" d="M238.13,273a3,3,0,0,0-1.71-2.68,6.43,6.43,0,0,1,0-11.46,3,3,0,0,0,1.71-2.67h0a3,3,0,0,0-4.21-2.69,12.35,12.35,0,0,0,0,22.19,3,3,0,0,0,4.21-2.69Z" transform="translate(-51.83 -84.25)"/><rect class="cls-24" x="96.64" y="131.6" width="22.55" height="54.13"/><rect class="cls-27" x="99.83" y="142.03" width="6.58" height="1.94"/><rect class="cls-27" x="99.83" y="146.37" width="6.58" height="1.94"/><rect class="cls-27" x="99.83" y="150.7" width="6.58" height="1.94"/><rect class="cls-27" x="99.83" y="173.26" width="6.58" height="1.94"/><rect class="cls-27" x="99.83" y="157.06" width="9.58" height="1.94"/><rect class="cls-10" x="99.83" y="161.4" width="9.58" height="1.94"/><rect class="cls-10" x="99.83" y="165.74" width="9.58" height="1.94"/><rect class="cls-6" x="15.82" y="199.26" width="28.57" height="28.57"/><rect class="cls-24" x="0.79" y="206.02" width="28.57" height="28.57"/><rect class="cls-24" x="355.61" y="281.95" width="12.03" height="12.03"/><polyline class="cls-12" points="211.28 262.97 221.43 262.97 227.06 268.61 285.7 268.61 294.72 259.58 326.3 259.58"/><circle class="cls-12" cx="208.32" cy="263.11" r="2.96"/><circle class="cls-12" cx="329.35" cy="259.44" r="2.96"/><path class="cls-6" d="M421,188a3.76,3.76,0,1,1-3.76-3.75A3.76,3.76,0,0,1,421,188Z" transform="translate(-51.83 -84.25)"/><path class="cls-4" d="M73.67,334.62a3.76,3.76,0,1,1-3.76-3.75A3.76,3.76,0,0,1,73.67,334.62Z" transform="translate(-51.83 -84.25)"/><path class="cls-4" d="M91,348.53A6.58,6.58,0,1,1,84.38,342,6.59,6.59,0,0,1,91,348.53Z" transform="translate(-51.83 -84.25)"/><rect class="cls-24" x="236.84" y="286.46" width="26.31" height="6.01"/><rect class="cls-24" x="236.84" y="297.74" width="57.7" height="6.01"/><line class="cls-29" x1="75.65" y1="292.22" x2="69.28" y2="298.6"/><line class="cls-29" x1="81.79" y1="292.22" x2="75.41" y2="298.6"/><line class="cls-29" x1="87.92" y1="292.22" x2="81.54" y2="298.6"/><line class="cls-29" x1="94.05" y1="292.22" x2="87.67" y2="298.6"/><line class="cls-29" x1="100.18" y1="292.22" x2="93.8" y2="298.6"/></svg>