<svg xmlns="http://www.w3.org/2000/svg" viewBox="0 0 1000 1000" width="1000" height="1000"
    preserveAspectRatio="xMidYMid meet" style="width: 100%; height: 100%; transform: translate3d(0px, 0px, 0px);">
    <defs>
        <clipPath id="__lottie_element_14">
            <rect width="1000" height="1000" x="0" y="0"></rect>
        </clipPath>
        <linearGradient id="__lottie_element_44" spreadMethod="pad" gradientUnits="userSpaceOnUse" x1="-129.625" y1="0"
            x2="191.375" y2="0">
            <stop offset="0%" stop-color="rgb(154,189,247)" stop-opacity="0"></stop>
            <stop offset="50%" stop-color="rgb(154,189,247)" stop-opacity="0.5"></stop>
            <stop offset="100%" stop-color="rgb(154,189,247)" stop-opacity="1"></stop>
        </linearGradient>
        <linearGradient id="__lottie_element_51" spreadMethod="pad" gradientUnits="userSpaceOnUse"
            x1="-56.07099914550781" y1="0" x2="446.2959899902344" y2="0">
            <stop offset="0%" stop-color="rgb(154,189,247)" stop-opacity="0"></stop>
            <stop offset="50%" stop-color="rgb(154,189,247)" stop-opacity="0.5"></stop>
            <stop offset="100%" stop-color="rgb(154,189,247)" stop-opacity="1"></stop>
        </linearGradient>
        <linearGradient id="__lottie_element_55" spreadMethod="pad" gradientUnits="userSpaceOnUse"
            x1="-38.0620002746582" y1="0" x2="565.125" y2="0">
            <stop offset="0%" stop-color="rgb(154,189,247)" stop-opacity="0"></stop>
            <stop offset="50%" stop-color="rgb(154,189,247)" stop-opacity="0.5"></stop>
            <stop offset="100%" stop-color="rgb(154,189,247)" stop-opacity="1"></stop>
        </linearGradient>
    </defs>
    <g clip-path="url(#__lottie_element_14)">
        <g transform="matrix(3.200000047683716,0,0,3.200000047683716,1416.916015625,907.0670166015625)" opacity="1"
            style="display: block;">
            <g opacity="1" transform="matrix(1,0,0,1,-286.5,-132.5)">
                <path fill="url(#__lottie_element_55)" fill-opacity="1"
                    d=" M0,-130.5 C72.02294921875,-130.5 130.5,-72.02294921875 130.5,0 C130.5,72.02294921875 72.02294921875,130.5 0,130.5 C-72.02294921875,130.5 -130.5,72.02294921875 -130.5,0 C-130.5,-72.02294921875 -72.02294921875,-130.5 0,-130.5z">
                </path>
            </g>
        </g>
        <g transform="matrix(1.909999966621399,0,0,1.909999966621399,1047.3309326171875,736.1419677734375)" opacity="1"
            style="display: block;">
            <g opacity="1" transform="matrix(1,0,0,1,-286.5,-132.5)">
                <path fill="url(#__lottie_element_51)" fill-opacity="1"
                    d=" M0,-130.5 C72.02294921875,-130.5 130.5,-72.02294921875 130.5,0 C130.5,72.02294921875 72.02294921875,130.5 0,130.5 C-72.02294921875,130.5 -130.5,72.02294921875 -130.5,0 C-130.5,-72.02294921875 -72.02294921875,-130.5 0,-130.5z">
                </path>
            </g>
        </g>
        <g transform="matrix(1,0,0,1,74.48300170898438,57.4329833984375)" opacity="1" style="display: block;">
            <g opacity="1" transform="matrix(1,0,0,1,425.6340026855469,425.6340026855469)">
                <path stroke-linecap="butt" stroke-linejoin="miter" fill-opacity="0" stroke-miterlimit="10"
                    stroke-dasharray=" 9.082 9.082" stroke-dashoffset="0" stroke="rgb(154,189,247)" stroke-opacity="1"
                    stroke-width="3.027"
                    d=" M-249.35899353027344,0 C-249.35899353027344,-137.7169952392578 -137.7169952392578,-249.35899353027344 0,-249.35899353027344 C137.7169952392578,-249.35899353027344 249.35800170898438,-137.7169952392578 249.35800170898438,0 C249.35800170898438,137.7169952392578 137.7169952392578,249.35899353027344 0,249.35899353027344 C-137.7169952392578,249.35899353027344 -249.35899353027344,137.7169952392578 -249.35899353027344,0z">
                </path>
            </g>
            <g opacity="1" transform="matrix(1,0,0,1,425.6340026855469,425.6340026855469)">
                <path stroke-linecap="butt" stroke-linejoin="miter" fill-opacity="0" stroke-miterlimit="10"
                    stroke-dasharray=" 9.082 9.082" stroke-dashoffset="0" stroke="rgb(154,189,247)" stroke-opacity="1"
                    stroke-width="3.027"
                    d=" M-418.0660095214844,0 C-418.0660095214844,-230.89199829101562 -230.89199829101562,-418.0669860839844 0,-418.0669860839844 C230.89100646972656,-418.0669860839844 418.0660095214844,-230.89199829101562 418.0660095214844,0 C418.0660095214844,230.89199829101562 230.89100646972656,418.0669860839844 0,418.0669860839844 C-230.89199829101562,418.0669860839844 -418.0660095214844,230.89199829101562 -418.0660095214844,0z">
                </path>
            </g>
        </g>
        <g style="display: block;" transform="matrix(1,0,0,1,786.615966796875,615.5670166015625)" opacity="1">
            <g opacity="1" transform="matrix(1,0,0,1,-286.5,-132.5)">
                <path fill="url(#__lottie_element_44)" fill-opacity="1"
                    d=" M0,-130.5 C72.02294921875,-130.5 130.5,-72.02294921875 130.5,0 C130.5,72.02294921875 72.02294921875,130.5 0,130.5 C-72.02294921875,130.5 -130.5,72.02294921875 -130.5,0 C-130.5,-72.02294921875 -72.02294921875,-130.5 0,-130.5z">
                </path>
            </g>
        </g>
        <g style="display: block;"
            transform="matrix(0.15475645661354065,0.9879526495933533,-0.9879526495933533,0.15475645661354065,298.5723876953125,426.8591613769531)"
            opacity="1">
            <g opacity="1" transform="matrix(1,0,0,1,56.000999450683594,56.000999450683594)">
                <path fill="rgb(255,255,255)" fill-opacity="1"
                    d=" M38.08599853515625,-31.985000610351562 C55.750999450683594,-10.951000213623047 53.01900100708008,20.422000885009766 31.985000610351562,38.08599853515625 C10.949999809265137,55.750999450683594 -20.422000885009766,53.02000045776367 -38.08700180053711,31.985000610351562 C-55.750999450683594,10.951000213623047 -53.02000045776367,-20.42099952697754 -31.985000610351562,-38.08599853515625 C-10.951000213623047,-55.750999450683594 20.42099952697754,-53.01900100708008 38.08599853515625,-31.985000610351562z">
                </path>
            </g>
            <g opacity="1" transform="matrix(1,0,0,1,56.000999450683594,56.000999450683594)">
                <path fill="rgb(154,189,247)" fill-opacity="1"
                    d=" M11.73900032043457,-9.859000205993652 C17.18400001525879,-3.375999927520752 16.341999053955078,6.295000076293945 9.859000205993652,11.73900032043457 C3.375,17.18400001525879 -6.295000076293945,16.341999053955078 -11.739999771118164,9.859000205993652 C-17.18400001525879,3.375999927520752 -16.340999603271484,-6.294000148773193 -9.857999801635742,-11.73799991607666 C-3.375,-17.183000564575195 6.294000148773193,-16.341999053955078 11.73900032043457,-9.859000205993652z">
                </path>
            </g>
        </g>
        <g style="display: block;"
            transform="matrix(0.15475645661354065,0.9879526495933533,-0.9879526495933533,0.15475645661354065,759.0947265625,500.8608703613281)"
            opacity="1">
            <g opacity="1" transform="matrix(1,0,0,1,17.433000564575195,17.43400001525879)">
                <path fill="rgb(19,32,168)" fill-opacity="1"
                    d=" M11.73900032043457,-9.859000205993652 C17.18400001525879,-3.375999927520752 16.341999053955078,6.294000148773193 9.859000205993652,11.73799991607666 C3.375,17.183000564575195 -6.294000148773193,16.340999603271484 -11.73900032043457,9.857999801635742 C-17.183000564575195,3.375 -16.340999603271484,-6.294000148773193 -9.857999801635742,-11.73799991607666 C-3.375,-17.183000564575195 6.294000148773193,-16.341999053955078 11.73900032043457,-9.859000205993652z">
                </path>
            </g>
        </g>
        <g style="display: block;"
            transform="matrix(0.15475690364837646,0.9879554510116577,-0.9879554510116577,0.15475690364837646,561.6276245117188,218.1704559326172)"
            opacity="0.9999949457403224">
            <g opacity="1" transform="matrix(1,0,0,1,17.433000564575195,17.43400001525879)">
                <path fill="rgb(187,0,112)" fill-opacity="1"
                    d=" M11.73900032043457,-9.859000205993652 C17.18400001525879,-3.375999927520752 16.341999053955078,6.294000148773193 9.859000205993652,11.73799991607666 C3.375,17.183000564575195 -6.295000076293945,16.340999603271484 -11.739999771118164,9.857999801635742 C-17.18400001525879,3.375 -16.340999603271484,-6.294000148773193 -9.857999801635742,-11.73799991607666 C-3.375,-17.183000564575195 6.294000148773193,-16.341999053955078 11.73900032043457,-9.859000205993652z">
                </path>
            </g>
        </g>
        <g style="display: block;"
            transform="matrix(0.1547573208808899,-0.9879581928253174,0.9879581928253174,0.1547573208808899,557.1857299804688,909.4962158203125)"
            opacity="0.9999900833332026">
            <g opacity="1" transform="matrix(1,0,0,1,17.43400001525879,17.43400001525879)">
                <path fill="rgb(19,32,168)" fill-opacity="1"
                    d=" M11.73900032043457,-9.859000205993652 C17.18400001525879,-3.375999927520752 16.341999053955078,6.294000148773193 9.859000205993652,11.73799991607666 C3.375,17.183000564575195 -6.295000076293945,16.340999603271484 -11.739999771118164,9.857999801635742 C-17.18400001525879,3.375 -16.341999053955078,-6.294000148773193 -9.859000205993652,-11.73799991607666 C-3.375999927520752,-17.183000564575195 6.294000148773193,-16.341999053955078 11.73900032043457,-9.859000205993652z">
                </path>
            </g>
        </g>
        <g style="display: block;"
            transform="matrix(0.15475724637508392,-0.9879577159881592,0.9879577159881592,0.15475724637508392,853.9429931640625,479.0760498046875)"
            opacity="0.9999908776935802">
            <g opacity="1" transform="matrix(1,0,0,1,52.763999938964844,52.76300048828125)">
                <path stroke-linecap="butt" stroke-linejoin="miter" fill-opacity="0" stroke-miterlimit="10"
                    stroke="rgb(154,189,247)" stroke-opacity="1" stroke-width="6.054"
                    d=" M38.08599853515625,-31.985000610351562 C55.750999450683594,-10.951000213623047 53.01900100708008,20.422000885009766 31.985000610351562,38.08599853515625 C10.949999809265137,55.750999450683594 -20.422000885009766,53.02000045776367 -38.08700180053711,31.985000610351562 C-55.750999450683594,10.951000213623047 -53.02000045776367,-20.42099952697754 -31.985000610351562,-38.08599853515625 C-10.951000213623047,-55.750999450683594 20.42099952697754,-53.01900100708008 38.08599853515625,-31.985000610351562z">
                </path>
            </g>
            <g opacity="1" transform="matrix(1,0,0,1,52.763999938964844,52.763999938964844)">
                <path fill="rgb(154,189,247)" fill-opacity="0.2"
                    d=" M38.08599853515625,-31.985000610351562 C55.750999450683594,-10.951000213623047 53.01900100708008,20.422000885009766 31.985000610351562,38.08599853515625 C10.949999809265137,55.750999450683594 -20.422000885009766,53.02000045776367 -38.08700180053711,31.985000610351562 C-55.750999450683594,10.951000213623047 -53.02000045776367,-20.42099952697754 -31.985000610351562,-38.08599853515625 C-10.951000213623047,-55.750999450683594 20.42099952697754,-53.01900100708008 38.08599853515625,-31.985000610351562z">
                </path>
            </g>
            <g opacity="1" transform="matrix(1,0,0,1,52.763999938964844,52.763999938964844)">
                <path fill="rgb(19,32,168)" fill-opacity="1"
                    d=" M11.73900032043457,-9.859000205993652 C17.18400001525879,-3.375999927520752 16.341999053955078,6.294000148773193 9.859000205993652,11.73799991607666 C3.375,17.183000564575195 -6.294000148773193,16.341999053955078 -11.73900032043457,9.859000205993652 C-17.183000564575195,3.375999927520752 -16.340999603271484,-6.294000148773193 -9.857999801635742,-11.73799991607666 C-3.375,-17.183000564575195 6.294000148773193,-16.341999053955078 11.73900032043457,-9.859000205993652z">
                </path>
            </g>
        </g>
        <g style="display: block;"
            transform="matrix(0.15475645661354065,-0.9879526495933533,0.9879526495933533,0.15475645661354065,669.2554321289062,127.87818908691406)"
            opacity="1">
            <g opacity="1" transform="matrix(1,0,0,1,17.433000564575195,17.43400001525879)">
                <path fill="rgb(187,0,112)" fill-opacity="1"
                    d=" M11.73900032043457,-9.859000205993652 C17.18400001525879,-3.375999927520752 16.341999053955078,6.294000148773193 9.859000205993652,11.73799991607666 C3.375,17.183000564575195 -6.294000148773193,16.340999603271484 -11.73900032043457,9.857999801635742 C-17.183000564575195,3.375 -16.340999603271484,-6.294000148773193 -9.857999801635742,-11.73799991607666 C-3.375,-17.183000564575195 6.294000148773193,-16.341999053955078 11.73900032043457,-9.859000205993652z">
                </path>
            </g>
        </g>
        <g style="display: block;"
            transform="matrix(0.15475694835186005,-0.9879558086395264,0.9879558086395264,0.15475694835186005,298.624755859375,134.29718017578125)"
            opacity="0.9999943507673426">
            <g opacity="1" transform="matrix(1,0,0,1,52.763999938964844,52.763999938964844)">
                <path stroke-linecap="butt" stroke-linejoin="miter" fill-opacity="0" stroke-miterlimit="10"
                    stroke="rgb(154,189,247)" stroke-opacity="1" stroke-width="6.054"
                    d=" M38.08599853515625,-31.985000610351562 C55.750999450683594,-10.951000213623047 53.01900100708008,20.42099952697754 31.985000610351562,38.08599853515625 C10.949999809265137,55.750999450683594 -20.422000885009766,53.02000045776367 -38.08700180053711,31.985000610351562 C-55.750999450683594,10.951000213623047 -53.02000045776367,-20.42099952697754 -31.985000610351562,-38.08599853515625 C-10.951000213623047,-55.750999450683594 20.42099952697754,-53.01900100708008 38.08599853515625,-31.985000610351562z">
                </path>
            </g>
            <g opacity="1" transform="matrix(1,0,0,1,52.763999938964844,52.763999938964844)">
                <path fill="rgb(255,255,255)" fill-opacity="1"
                    d=" M11.73900032043457,-9.859000205993652 C17.18400001525879,-3.375999927520752 16.341999053955078,6.294000148773193 9.859000205993652,11.73799991607666 C3.375,17.183000564575195 -6.294000148773193,16.340999603271484 -11.73900032043457,9.857999801635742 C-17.183000564575195,3.375 -16.340999603271484,-6.294000148773193 -9.857999801635742,-11.73799991607666 C-3.375,-17.183000564575195 6.294000148773193,-16.341999053955078 11.73900032043457,-9.859000205993652z">
                </path>
            </g>
        </g>
        <g style="display: block;"
            transform="matrix(0.15475690364837646,-0.9879554510116577,0.9879554510116577,0.15475690364837646,78.20341491699219,728.4879760742188)"
            opacity="0.9999949457403224">
            <g opacity="1" transform="matrix(1,0,0,1,49.73699951171875,49.73699951171875)">
                <path fill="rgb(154,189,247)" fill-opacity="0.2"
                    d=" M38.08599853515625,-31.985000610351562 C55.750999450683594,-10.951000213623047 53.01900100708008,20.422000885009766 31.985000610351562,38.08599853515625 C10.949999809265137,55.750999450683594 -20.422000885009766,53.02000045776367 -38.08700180053711,31.985000610351562 C-55.750999450683594,10.951000213623047 -53.02000045776367,-20.42099952697754 -31.985000610351562,-38.08599853515625 C-10.951000213623047,-55.750999450683594 20.42099952697754,-53.01900100708008 38.08599853515625,-31.985000610351562z">
                </path>
            </g>
            <g opacity="1" transform="matrix(1,0,0,1,49.73699951171875,49.736000061035156)">
                <path fill="rgb(154,189,247)" fill-opacity="1"
                    d=" M11.73900032043457,-9.859000205993652 C17.18400001525879,-3.375999927520752 16.341999053955078,6.294000148773193 9.859000205993652,11.73799991607666 C3.375,17.183000564575195 -6.295000076293945,16.340999603271484 -11.739999771118164,9.857999801635742 C-17.18400001525879,3.375 -16.340999603271484,-6.294000148773193 -9.857999801635742,-11.73799991607666 C-3.375,-17.183000564575195 6.294000148773193,-16.341999053955078 11.73900032043457,-9.859000205993652z">
                </path>
            </g>
        </g>
    </g>
</svg>