<svg xmlns="http://www.w3.org/2000/svg" xmlns:xlink="http://www.w3.org/1999/xlink" viewBox="0 0 421.24 363.48"><defs><style>.cls-1{isolation:isolate;}.cls-2{fill:#d6e3fe;}.cls-3{fill:#bc74e1;}.cls-4{fill:#a364c8;}.cls-5{fill:#08e1b6;}.cls-6{fill:#04c89b;}.cls-31,.cls-7,.cls-8{fill:#6833a3;}.cls-16,.cls-17,.cls-27,.cls-8{opacity:0.4;}.cls-17,.cls-21,.cls-34,.cls-35,.cls-9{fill:none;}.cls-34,.cls-35,.cls-9{stroke:#6833a3;}.cls-17,.cls-34,.cls-35,.cls-9{stroke-miterlimit:10;}.cls-10{fill:#7ca1d6;}.cls-11{fill:url(#linear-gradient);}.cls-12,.cls-15,.cls-16,.cls-20,.cls-24,.cls-27{fill:#fff;}.cls-13{fill:#5b8cdd;}.cls-14{fill:#a9c7f9;}.cls-15{font-size:39.37px;letter-spacing:0.2em;}.cls-15,.cls-20,.cls-24,.cls-31{font-family:Montserrat-Black, Montserrat Black;}.cls-15,.cls-20,.cls-24,.cls-27,.cls-31{font-weight:800;}.cls-16{mix-blend-mode:overlay;}.cls-17{stroke:#402083;stroke-width:4px;mix-blend-mode:multiply;}.cls-18{fill:#008487;}.cls-19{fill:#00cbdc;}.cls-20{font-size:33.28px;letter-spacing:0.2em;}.cls-22{fill:#235098;}.cls-23{fill:#4883ed;}.cls-24{font-size:28.45px;letter-spacing:0.2em;}.cls-25{letter-spacing:0.15em;}.cls-26{letter-spacing:0.14em;}.cls-27{font-size:12.71px;font-family:Montserrat-ExtraBold, Montserrat ExtraBold;letter-spacing:0.18em;}.cls-28{letter-spacing:0.2em;}.cls-29{letter-spacing:0.23em;}.cls-30{letter-spacing:0.2em;}.cls-31{font-size:13.61px;letter-spacing:0.19em;}.cls-32{letter-spacing:0.23em;}.cls-33{letter-spacing:0.2em;}.cls-34{stroke-width:3px;}.cls-35{stroke-width:2px;}</style><linearGradient id="linear-gradient" x1="231.12" y1="347.6" x2="231.12" y2="35.52" gradientUnits="userSpaceOnUse"><stop offset="0" stop-color="#3d1f81"/><stop offset="1" stop-color="#6b34a6"/></linearGradient></defs><g class="cls-1"><g id="Objects"><path class="cls-2" d="M458.57,419.59c0,11.67-93.24,21.13-208.27,21.13S42,431.26,42,419.59s93.24-21.14,208.27-21.14S458.57,407.91,458.57,419.59Z" transform="translate(-37.33 -77.24)"/><path class="cls-3" d="M151.85,341.84c-2.63.25-5.18,1.26-7.85,1.25-3.22,0-2.86-10.28-3.24-12.88-1-6.39-3.61-13-9.32-16.57a14.83,14.83,0,0,0-17.32,1.44c-3.11,2.75-5,6.53-6.81,10.27-1.47-1.53-3-2.86-3.9-3.7a132.49,132.49,0,0,0-16.89-14.12c-4.63-3.22-10.87-7.24-16.77-6.86-6.6.43-7,7.84-6.33,12.86.06.43.15.86.22,1.28-1.84-1.43-3.71-2.83-5.62-4.17-5.71-4-13.75-4.9-18.33,1.15a2,2,0,0,0-.3.53,2.32,2.32,0,0,0-.39.47c-3.91,6.3-.46,13.37,5.17,17.3,2,1.37,4,2.64,6.07,3.87-4.74.82-9.47,2.59-10.86,6.84-1.79,5.44,3.8,10,7.26,13.18,5.4,4.95,12.12,8.62,18.61,11.94A95,95,0,0,0,76,371a42,42,0,0,0-7,9.43c-2.8,5.65-.66,12.71,3.89,16.78,5.1,4.56,12.18,4.63,18.57,3.53,2.45-.42,12.61-4.54,13.89-2.22,1.15,2.11,1.27,5,1.68,7.28a17.46,17.46,0,0,0,4.45,9.09c4.59,4.81,11.63,5.15,17.81,4.42,7.13-.84,14.16-3.48,20.64-6.47,3.54-1.63,7-3.46,10.45-5.24,1.65-.85,4.91-3.79,6.87-3.36a3.15,3.15,0,0,0,3-.46,3.76,3.76,0,0,0,.65-.61h0l.14-.18.06-.09a.24.24,0,0,0,.06-.09,1.06,1.06,0,0,0,.12-.2h0a3,3,0,0,0,.34-.83,3.16,3.16,0,0,0-.65-3c-1-1.52.31-5,.57-6.58.61-3.82.86-7.76,1.18-11.6a76.64,76.64,0,0,0-1.07-21.75c-1.26-6.1-4.08-12.57-9.89-15.54A17.58,17.58,0,0,0,151.85,341.84Z" transform="translate(-37.33 -77.24)"/><path class="cls-4" d="M101.93,329.6a1.52,1.52,0,0,0-3-.29l-2,20.71L79,337.69l2.15-22.37a1.51,1.51,0,1,0-3-.29l-2,20.7L56.26,322.07l-.08-.05a1.51,1.51,0,0,0-1.71,2.49l.07.06q9.95,6.82,19.88,13.66l-18.61,9.28a1.51,1.51,0,1,0,1.35,2.71l20.12-10,17.93,12.32-18.62,9.28a1.51,1.51,0,1,0,1.35,2.71l20.12-10q9.66,6.63,19.31,13.27L98.76,377a1.51,1.51,0,0,0,1.35,2.71l20.12-10,21,14.46-18.61,9.28a1.51,1.51,0,0,0,1.35,2.71l20.12-10L162.89,399a1.52,1.52,0,0,0,1.71-2.5l-18.76-12.9L148,361.26a1.52,1.52,0,1,0-3-.29l-2,20.7q-10.51-7.23-21-14.46l2.15-22.37a1.52,1.52,0,1,0-3-.29l-2,20.7L99.78,352Z" transform="translate(-37.33 -77.24)"/><path class="cls-5" d="M202.08,318.83c-3.32-.81-6.85-.66-10.11-1.81-3.92-1.39.88-13.76,1.52-17.09,1.55-8.21,1.14-17.47-4.33-24.19a19.15,19.15,0,0,0-21.74-5.6c-5,2-8.88,5.83-12.68,9.63-1.14-2.49-2.5-4.78-3.19-6.17a170.17,170.17,0,0,0-14.61-24.41c-4.28-5.89-10.19-13.45-17.54-15.49-8.24-2.29-11.91,6.57-13.19,13-.11.55-.19,1.1-.28,1.65q-2.46-3.79-5.09-7.48c-5.26-7.33-14.7-11.82-22.86-6.39a3.37,3.37,0,0,0-.59.52,3,3,0,0,0-.67.41c-7.46,6-6.25,16.12-1,23.31,1.81,2.51,3.77,4.93,5.75,7.31-6.13-1-12.65-.88-16.16,3.72-4.5,5.88.39,13.83,3.26,19.17,4.49,8.34,11.12,15.68,17.64,22.49a123.06,123.06,0,0,0,11,10.75c-4.45,2.44-8.81,4.9-12.53,8.54-5.82,5.71-6.21,15.23-2.39,22.13,4.28,7.74,12.9,10.84,21.17,12.21,3.16.52,17.31-.19,17.88,3.19.51,3.06-.56,6.6-1,9.6a22.59,22.59,0,0,0,1.57,13c3.55,7.82,12,11.23,19.85,13,9.06,2,18.77,1.77,27.94.88,5-.49,10-1.26,15-2,2.37-.33,7.6-2.54,9.82-1.18a4.06,4.06,0,0,0,3.85.72,4.5,4.5,0,0,0,1.05-.47h0l.25-.16.12-.08.11-.09.23-.19h0a4.24,4.24,0,0,0,.76-.87,4.08,4.08,0,0,0,.47-3.89c-.57-2.27,2.49-5.93,3.49-7.79,2.36-4.4,4.34-9.09,6.37-13.66a99.05,99.05,0,0,0,7.94-27c1.06-8,.37-17.08-5.47-23.16C210.42,321.58,206.47,319.91,202.08,318.83Z" transform="translate(-37.33 -77.24)"/><path class="cls-6" d="M146.36,282.67a2,2,0,1,0-3.55-1.63l-11.23,24.42q-8.33-11.32-16.64-22.66l12.13-26.39a2,2,0,1,0-3.55-1.64L112.29,279.2,93.83,254.07l-.07-.1c-1.49-2-4.65.29-3.15,2.32a.61.61,0,0,0,.07.1l18.45,25.12-26.66,3.41A2,2,0,0,0,83,288.8l28.82-3.68,16.64,22.66-26.66,3.41a2,2,0,0,0,.5,3.88l28.81-3.68L149,335.79l-26.66,3.41a2,2,0,1,0,.49,3.89l28.82-3.69q9.76,13.29,19.52,26.59l-26.66,3.4a2,2,0,0,0,.5,3.89l28.81-3.69,17.42,23.72c1.5,2,4.65-.28,3.16-2.32L177,367.28l12.14-26.4a2,2,0,0,0-3.56-1.63l-11.23,24.42-19.52-26.58,12.13-26.4a2,2,0,0,0-3.56-1.64l-11.22,24.43q-9-12.21-17.93-24.41Z" transform="translate(-37.33 -77.24)"/><path class="cls-5" d="M341.26,348.53c-4.25,2.9-5.82,8.24-6.2,13.14a60.58,60.58,0,0,0,1.32,17.14c.63,3,1.22,6,2.08,9,.36,1.24,1.72,3.81,1.09,5.1a2.45,2.45,0,0,0-.21,2.38,2.87,2.87,0,0,0,.34.62h0a1.34,1.34,0,0,1,.11.14l.06.07.06.06a1.59,1.59,0,0,0,.13.13h0a2.58,2.58,0,0,0,.57.41,2.47,2.47,0,0,0,2.39.06c1.5-.53,4.34,1.45,5.71,1.95,2.89,1.05,5.77,2.14,8.71,3.07a55.28,55.28,0,0,0,16.8,3c4.91,0,10.39-1,13.5-5.23A13.77,13.77,0,0,0,390.3,392c.1-1.85-.09-4.1.6-5.86.77-1.95,9.13.27,11.09.35,5.11.23,10.65-.53,14.19-4.6,3.16-3.64,4.13-9.38,1.38-13.52a33.37,33.37,0,0,0-6.4-6.7,75.61,75.61,0,0,0,7.94-5c4.75-3.25,9.64-6.79,13.39-11.2,2.39-2.83,6.31-7,4.38-11-1.52-3.19-5.4-4.1-9.19-4.27,1.49-1.17,3-2.37,4.37-3.64,4-3.64,6-9.51,2.33-14.06a2.15,2.15,0,0,0-.35-.33,1.67,1.67,0,0,0-.29-.38c-4.18-4.28-10.39-2.79-14.46.92-1.36,1.24-2.69,2.52-4,3.82,0-.34,0-.68,0-1,.05-4-1-9.76-6.23-9.44-4.65.29-9.14,4.05-12.44,7a104.82,104.82,0,0,0-11.83,12.73c-.59.74-1.69,1.94-2.68,3.28-1.79-2.75-3.64-5.51-6.36-7.36a11.69,11.69,0,0,0-13.7.59c-4.12,3.32-5.54,8.8-5.65,13.9,0,2.07,1.26,10.07-1.26,10.4-2.09.28-4.18-.26-6.27-.2A14,14,0,0,0,341.26,348.53Z" transform="translate(-37.33 -77.24)"/><path class="cls-6" d="M386.78,331.84a1.19,1.19,0,1,1,2.33-.53l3.62,16,12.81-11.43-3.91-17.31a1.2,1.2,0,1,1,2.34-.52l3.61,16,14.21-12.67,0-.05a1.2,1.2,0,0,1,1.59,1.79l-.05,0-14.21,12.68,15.5,5.41a1.2,1.2,0,0,1-.79,2.26l-16.75-5.86-12.81,11.43,15.49,5.42a1.19,1.19,0,1,1-.79,2.25l-16.74-5.85-13.81,12.31,15.5,5.41a1.2,1.2,0,0,1-.79,2.26l-16.75-5.85-15,13.4,15.49,5.42a1.2,1.2,0,0,1,.74,1.52,1.21,1.21,0,0,1-1.53.74l-16.74-5.86-13.42,12a1.19,1.19,0,0,1-1.59-1.78l13.41-12-3.9-17.31a1.19,1.19,0,1,1,2.33-.53l3.62,16,15-13.41-3.9-17.3a1.19,1.19,0,1,1,2.33-.53l3.61,16,13.8-12.31Z" transform="translate(-37.33 -77.24)"/><path class="cls-3" d="M354.53,210.31c-1.9,2.6-1.71,6.07-.91,9a37.68,37.68,0,0,0,4.37,9.81c1,1.62,2,3.3,3.09,4.84.47.66,1.81,1.89,1.71,2.77a1.55,1.55,0,0,0,.38,1.45,1.53,1.53,0,0,0,.33.29h0l.09.06.05,0,.05,0a.31.31,0,0,0,.1,0h0a2,2,0,0,0,.42.13,1.56,1.56,0,0,0,1.42-.47c.77-.62,2.86-.05,3.77-.05,1.92,0,3.85.06,5.77,0a34.21,34.21,0,0,0,10.52-1.74c2.88-1.05,5.91-2.76,6.86-5.9a8.65,8.65,0,0,0-.06-5,11.76,11.76,0,0,1-.88-3.57c.05-1.31,5.43-1.76,6.6-2.11,3.06-.94,6.16-2.55,7.39-5.68a7.17,7.17,0,0,0-2-8.25,20.73,20.73,0,0,0-5.17-2.6,48.94,48.94,0,0,0,3.62-4.62,41.05,41.05,0,0,0,5.54-9.4c.82-2.16,2.27-5.41.27-7.41-1.56-1.56-4-1.29-6.3-.59.63-1,1.25-2,1.81-3.06,1.61-3,1.56-6.86-1.57-8.76a1.07,1.07,0,0,0-.27-.12,1.21,1.21,0,0,0-.25-.17c-3.36-1.64-6.7.53-8.32,3.57-.55,1-1.06,2-1.55,3.08-.07-.2-.12-.41-.19-.61-.81-2.37-2.64-5.53-5.64-4.25-2.68,1.14-4.54,4.3-5.86,6.74a65.49,65.49,0,0,0-4.3,10c-.19.57-.59,1.5-.89,2.5a15.37,15.37,0,0,0-5.28-3,7.31,7.31,0,0,0-7.95,3.21c-1.72,2.81-1.41,6.34-.41,9.36.41,1.23,2.84,5.67,1.43,6.39a37.59,37.59,0,0,1-3.73,1.19A8.63,8.63,0,0,0,354.53,210.31Z" transform="translate(-37.33 -77.24)"/><path class="cls-4" d="M377.83,191a.75.75,0,0,1,1.26-.8l5.48,8.67q2.58-4.69,5.15-9.41l-5.91-9.37a.74.74,0,1,1,1.26-.79l5.47,8.67q2.86-5.22,5.72-10.43s0,0,0,0a.75.75,0,0,1,1.31.71s0,0,0,0l-5.72,10.44,10.26-.06a.75.75,0,0,1,0,1.5l-11.09.05q-2.56,4.71-5.15,9.41l10.25-.05a.75.75,0,1,1,0,1.49l-11.08.06-5.55,10.13,10.25-.05a.75.75,0,0,1,0,1.49l-11.09.06-6,11,10.25-.05a.75.75,0,0,1,0,1.49l-11.08.06-5.4,9.85a.75.75,0,0,1-1.31-.72l5.4-9.85-5.92-9.37a.75.75,0,1,1,1.26-.8l5.48,8.68q3-5.52,6.05-11l-5.92-9.37a.75.75,0,1,1,1.26-.8l5.48,8.67,5.55-10.13Z" transform="translate(-37.33 -77.24)"/><polygon class="cls-7" points="98.32 17.93 89.48 17.93 97.19 0 106.03 0 98.32 17.93"/><polygon class="cls-7" points="111.14 17.93 102.31 17.93 110.01 0 118.85 0 111.14 17.93"/><polygon class="cls-7" points="123.97 17.93 115.13 17.93 122.83 0 131.67 0 123.97 17.93"/><polygon class="cls-8" points="136.78 17.92 127.94 17.92 135.65 0 144.49 0 136.78 17.92"/><polygon class="cls-8" points="149.61 17.93 140.77 17.93 148.47 0 157.31 0 149.61 17.93"/><polygon class="cls-8" points="162.43 17.93 153.59 17.93 161.29 0 170.13 0 162.43 17.93"/><polygon class="cls-8" points="175.25 17.93 166.41 17.93 174.11 0 182.95 0 175.25 17.93"/><path class="cls-9" d="M344.21,19.42h36.53a7.4,7.4,0,0,1,7.4,7.4V53.52a7.4,7.4,0,0,1-7.4,7.4H344.21a7.39,7.39,0,0,1-7.39-7.39V26.81A7.4,7.4,0,0,1,344.21,19.42Z"/><rect class="cls-7" x="355.2" y="38.23" width="14.55" height="3.87"/><rect class="cls-7" x="360.55" y="32.89" width="3.87" height="14.55"/><path class="cls-7" d="M148.65,142.6v-3.9H143a7.92,7.92,0,0,0-1-2.28l4-4-2.76-2.76-4,4a8.14,8.14,0,0,0-2.27-.95v-5.63h-3.9v5.63a8.21,8.21,0,0,0-2.28.95l-4-4-2.76,2.76,4,4a8.27,8.27,0,0,0-.95,2.27h-5.63v3.91h5.63a8.27,8.27,0,0,0,.95,2.27l-4,4,2.76,2.76,4-4a8,8,0,0,0,2.27,1v5.63H137v-5.63a7.86,7.86,0,0,0,2.27-1l4,4,2.76-2.76-4-4a7.86,7.86,0,0,0,1-2.27Zm-13.56,1.76a3.72,3.72,0,1,1,3.71-3.71A3.72,3.72,0,0,1,135.09,144.36Z" transform="translate(-37.33 -77.24)"/><path class="cls-3" d="M258.15,89.68V87.34h-3.39A5,5,0,0,0,254.2,86l2.39-2.39-1.66-1.66-2.39,2.4a4.73,4.73,0,0,0-1.37-.57V80.37h-2.34v3.38a4.73,4.73,0,0,0-1.37.57l-2.39-2.4-1.66,1.66L245.8,86a5,5,0,0,0-.56,1.37h-3.39v2.34h3.39a5,5,0,0,0,.56,1.37l-2.39,2.39,1.66,1.66,2.39-2.39a5,5,0,0,0,1.37.56v3.39h2.34V93.28a5.36,5.36,0,0,0,1.37-.57l2.39,2.39,1.66-1.66-2.4-2.39a4.73,4.73,0,0,0,.57-1.37ZM250,90.74a2.23,2.23,0,1,1,2.23-2.23A2.23,2.23,0,0,1,250,90.74Z" transform="translate(-37.33 -77.24)"/><path class="cls-10" d="M347.47,117.17H180.6a11.75,11.75,0,0,0-2.74.34l-.44-1.86L173,120.08a12,12,0,0,0-.94,1l-.1.09h0a11.46,11.46,0,0,0-2.81,7.51V417.79a11.47,11.47,0,0,0,11.47,11.46H347.47a11.46,11.46,0,0,0,11.46-11.46V128.64A11.46,11.46,0,0,0,347.47,117.17Z" transform="translate(-37.33 -77.24)"/><rect class="cls-11" x="136.22" y="35.52" width="189.8" height="312.08" rx="11.46"/><path class="cls-12" d="M301.57,132.74a2.46,2.46,0,0,1-2.46,2.47H236.23a2.46,2.46,0,0,1-2.46-2.47h0a2.46,2.46,0,0,1,2.46-2.46h62.88a2.46,2.46,0,0,1,2.46,2.46Z" transform="translate(-37.33 -77.24)"/><path class="cls-12" d="M319.72,132.74a4.33,4.33,0,1,1-4.33-4.32A4.33,4.33,0,0,1,319.72,132.74Z" transform="translate(-37.33 -77.24)"/><rect class="cls-13" x="67.32" y="90.23" width="134.48" height="64.11" rx="9.92"/><rect class="cls-14" x="70.63" y="86.92" width="134.48" height="64.11" rx="9.92"/><text class="cls-15" transform="translate(98.32 132.18)">&lt;/&gt;</text><rect class="cls-16" x="221.87" y="81.11" width="91.89" height="5.9"/><rect class="cls-16" x="274.97" y="92.02" width="38.79" height="5.91"/><rect class="cls-16" x="298.03" y="120.63" width="15.73" height="5.9"/><rect class="cls-16" x="245.84" y="103.93" width="67.92" height="5.91"/><rect class="cls-16" x="225.95" y="120.63" width="61.59" height="5.9"/><polyline class="cls-17" points="246 144.24 246 186.13 179.94 186.13 179.94 226.92"/><polyline class="cls-17" points="266.39 289.65 266.39 244.35 225.61 244.35"/><rect class="cls-18" x="107.32" y="213.27" width="119.04" height="64.11" rx="9.92"/><rect class="cls-19" x="110.63" y="209.95" width="119.04" height="64.11" rx="9.92"/><text class="cls-20" transform="translate(134.02 254.64)">C++</text><rect class="cls-21" x="278.29" y="207.53" width="22.5" height="20.53"/><rect class="cls-12" x="288.09" y="222.73" width="2.25" height="3.81"/><rect class="cls-12" x="288.09" y="215.9" width="2.25" height="3.81"/><rect class="cls-12" x="288.09" y="209.09" width="2.25" height="3.81"/><rect class="cls-21" x="278.29" y="228.06" width="22.5" height="20.53"/><rect class="cls-12" x="288.09" y="243.26" width="2.25" height="3.81"/><rect class="cls-12" x="288.09" y="236.43" width="2.25" height="3.81"/><rect class="cls-12" x="288.09" y="229.62" width="2.25" height="3.81"/><rect class="cls-21" x="278.29" y="248.59" width="22.5" height="20.53"/><rect class="cls-12" x="288.09" y="263.8" width="2.25" height="3.81"/><rect class="cls-12" x="288.09" y="256.96" width="2.25" height="3.81"/><rect class="cls-12" x="288.09" y="250.15" width="2.25" height="3.81"/><rect class="cls-21" x="278.29" y="269.12" width="22.5" height="20.53"/><rect class="cls-12" x="288.09" y="284.33" width="2.25" height="3.81"/><rect class="cls-12" x="288.09" y="277.49" width="2.25" height="3.81"/><rect class="cls-12" x="288.09" y="270.68" width="2.25" height="3.81"/><rect class="cls-22" x="271.53" y="156.83" width="134.48" height="64.11" rx="9.92"/><rect class="cls-23" x="274.84" y="153.52" width="134.49" height="64.11" rx="9.92"/><text class="cls-24" transform="translate(296.76 195.85)">J<tspan class="cls-25" x="16.21" y="0">A</tspan><tspan class="cls-26" x="37.81" y="0">V</tspan><tspan x="57.75" y="0">A</tspan></text><rect class="cls-21" x="169.04" y="164.86" width="18.08" height="22.5"/><rect class="cls-12" x="182.43" y="175.32" width="3.36" height="2.25"/><rect class="cls-12" x="176.41" y="175.32" width="3.35" height="2.25"/><rect class="cls-12" x="170.41" y="175.32" width="3.35" height="2.25"/><rect class="cls-21" x="187.12" y="164.86" width="18.08" height="22.5"/><rect class="cls-12" x="200.5" y="175.32" width="3.35" height="2.25"/><rect class="cls-12" x="194.49" y="175.32" width="3.35" height="2.25"/><rect class="cls-12" x="188.49" y="175.32" width="3.35" height="2.25"/><rect class="cls-21" x="205.2" y="164.86" width="18.08" height="22.5"/><rect class="cls-12" x="218.58" y="175.32" width="3.35" height="2.25"/><rect class="cls-12" x="212.56" y="175.32" width="3.35" height="2.25"/><rect class="cls-12" x="206.56" y="175.32" width="3.36" height="2.25"/><rect class="cls-21" x="158.9" y="180.52" width="22.5" height="22.05"/><rect class="cls-12" x="169.35" y="182.15" width="2.25" height="4.09"/><rect class="cls-12" x="169.35" y="189.49" width="2.25" height="4.09"/><rect class="cls-12" x="169.35" y="196.81" width="2.25" height="4.09"/><rect class="cls-16" x="165.71" y="299.4" width="137.06" height="20.77"/><text class="cls-27" transform="translate(182.16 314.29)">C<tspan class="cls-28" x="9.65" y="0">ONNE</tspan><tspan class="cls-29" x="51.55" y="0">C</tspan><tspan class="cls-30" x="61.82" y="0">TED</tspan></text><text class="cls-31" transform="translate(245.84 17.92)">P<tspan class="cls-32" x="9.84" y="0">Y</tspan><tspan class="cls-33" x="20.38" y="0">THON</tspan></text><path class="cls-34" d="M437.39,201.15a4.94,4.94,0,1,1-4.94-4.93A4.94,4.94,0,0,1,437.39,201.15Z" transform="translate(-37.33 -77.24)"/><path class="cls-35" d="M457.48,161.31a3.61,3.61,0,1,1-3.61-3.61A3.61,3.61,0,0,1,457.48,161.31Z" transform="translate(-37.33 -77.24)"/><path class="cls-35" d="M98.33,119.34a3.61,3.61,0,1,1-3.6-3.61A3.61,3.61,0,0,1,98.33,119.34Z" transform="translate(-37.33 -77.24)"/></g></g></svg>