<svg width="75" height="75" viewBox="0 0 75 75" fill="none" xmlns="http://www.w3.org/2000/svg">
    <g clip-path="url(#clip0)">
        <path
            d="M24.635 0.806265C26.7964 -0.315806 29.39 -0.268052 31.5136 0.958022L49.8664 11.554C52.1515 12.8732 53.5591 15.3114 53.5591 17.9501V71.1637C53.5591 72.0807 53.0675 72.9274 52.271 73.382L50.0972 74.6228C49.3985 75.0702 48.4708 75.1554 47.6492 74.6827L26.8954 62.7226C24.6075 61.4041 23.1977 58.9644 23.1977 56.3238V2.97716C23.1978 1.95968 23.8154 1.15622 24.635 0.806265Z"
            fill="transparent" stroke="#d2d2d2" stroke-width="0.852273" />
        <path
            d="M51.1821 72.6396V19.3137C51.1821 16.6751 49.7744 14.237 47.4894 12.9177L26.7349 0.935024C26.044 0.536147 25.2775 0.531899 24.635 0.806265C26.7964 -0.315806 29.39 -0.268052 31.5136 0.958022L49.8664 11.554C52.1515 12.8732 53.5591 15.3114 53.5591 17.9501V71.1637C53.5591 72.0807 53.0675 72.9274 52.271 73.3819L50.0972 74.6228C50.735 74.2146 51.1821 73.5048 51.1821 72.6396Z"
            fill="transparent" stroke="#d2d2d2" stroke-width="0.852273" />
        <path
            d="M25.5058 8.65189C25.5058 7.24635 27.0256 6.36633 28.2446 7.06595L48.0871 18.4537C48.6551 18.7798 49.0055 19.3847 49.0055 20.0397V63.617C49.0055 65.0238 47.4833 65.9036 46.2642 65.2015L26.4217 53.7724C25.8551 53.446 25.5058 52.8418 25.5058 52.1879V8.65189Z"
            fill="transparent" stroke="#d2d2d2" stroke-width="0.852273" />
        <path
            d="M36.4427 61.5555L35.15 60.8106C34.229 60.2799 33.079 60.9446 33.079 62.0075V62.5203C33.079 63.6059 33.6582 64.6089 34.5985 65.1515L35.8921 65.8981C36.813 66.4296 37.9639 65.765 37.9639 64.7018V64.1879C37.9638 63.1015 37.3839 62.0979 36.4427 61.5555Z"
            fill="transparent" stroke="#d2d2d2" stroke-width="0.852273" />
    </g>
    <defs>
        <clipPath id="clip0">
            <rect width="75" height="75" transform="matrix(-1 0 0 1 75 0)" fill="#1c1d31" />
        </clipPath>
    </defs>
</svg>