<svg width="60" height="80" viewBox="0 0 60 80" fill="none" xmlns="http://www.w3.org/2000/svg">
    <path d="M39.0582 64.3731L20.1451 53.3821L21.827 51.9478L40.7399 62.9389L39.0582 64.3731Z" fill="#77767E" />
    <path
        d="M53.122 26.5017L10.3527 1.80882C8.7138 0.862639 7.22893 0.774908 6.15679 1.39795L2.82216 3.33579C2.82553 3.33393 2.82907 3.33225 2.83244 3.3304C1.76787 3.94317 1.10711 5.25341 1.10189 7.11816L1.00069 42.8196C0.99008 46.5624 3.62168 51.1212 6.87868 53.0016L49.6478 77.6947C51.3338 78.668 52.8556 78.7309 53.934 78.0478C53.9036 78.067 53.8743 78.0875 53.8435 78.1056L57.1782 76.1679C58.237 75.5526 58.8936 74.244 58.8988 72.3845L59 36.6829C59.0104 32.9411 56.3792 28.3823 53.122 26.5017Z"
        fill="transparent" />
    <path
        d="M2.82185 3.33623L6.15632 1.39856C7.22862 0.775351 8.71332 0.863082 10.3523 1.80943L7.0178 3.74693C5.37886 2.80058 3.89399 2.71302 2.82185 3.33623Z"
        fill="transparent" stroke="#d2d2d2" />
    <path
        d="M57.1776 76.1682L53.843 78.1058C54.9019 77.4905 55.5584 76.182 55.5636 74.3224L58.8983 72.3848C58.893 74.2443 58.2365 75.5527 57.1776 76.1682Z"
        fill="transparent" stroke="#d2d2d2" />
    <path d="M55.665 38.6209L58.9995 36.6831L58.8983 72.3848L55.5638 74.3225L55.665 38.6209Z" fill="white"
        stroke="#d2d2d2" />
    <path d="M7.01779 3.74692L10.3524 1.80908L53.1217 26.502L49.787 28.4398L7.01779 3.74692Z" fill="white"
        stroke="#d2d2d2" />
    <path
        d="M49.787 28.4396L53.1216 26.502C56.3788 28.3825 59.0102 32.9414 58.9996 36.683L55.6652 38.6207C55.6756 34.8789 53.0442 30.32 49.787 28.4396Z"
        fill="transparent" stroke="#d2d2d2" />
    <path
        d="M49.787 28.4397C53.0442 30.3203 55.6756 34.8792 55.665 38.6208L55.5638 74.3223C55.5532 78.0652 52.9046 79.5754 49.6474 77.6949L6.87803 53.002C3.62086 51.1214 0.989423 46.5626 1.00003 42.8199L1.10124 7.11836C1.11184 3.37673 3.76045 1.86627 7.01762 3.74685L49.787 28.4397Z"
        fill="transparent" stroke="#d2d2d2" />
    <path
        d="M50.0383 71.9051C49.113 71.3709 48.3604 71.7997 48.3574 72.8629C48.3544 73.9261 49.102 75.2212 50.0273 75.7553C50.9526 76.2894 51.7051 75.8607 51.7082 74.7975C51.7112 73.7343 50.9636 72.4394 50.0383 71.9051Z"
        fill="transparent" stroke="#d2d2d2" />
    <path d="M52.4779 34.5926L4.18715 6.71191V43.4794L52.4779 71.3601V34.5926Z" fill="transparent" />
    <path
        d="M52.4779 35.6483C52.4779 34.995 52.1294 34.3914 51.5636 34.0647L6.93001 8.29551C5.71096 7.59169 4.18715 8.47146 4.18715 9.8791V42.4237C4.18715 43.0769 4.53567 43.6806 5.10144 44.0073L49.735 69.7765C50.9541 70.4803 52.4779 69.6005 52.4779 68.1929V35.6483Z"
        fill="transparent" stroke="#d2d2d2" />
</svg>